<svg width="55" height="40" viewBox="0 0 55 40" fill="none" xmlns="http://www.w3.org/2000/svg">
    <path fill-rule="evenodd" clip-rule="evenodd"
          d="M51.381 20.3579L48.3569 23.0197L52.0048 28.8673H54.7882V35.4335C54.7906 36.2055 54.367 36.9081 53.458 36.9165H27.5184L25.2525 39.78C24.9964 40.0918 24.2995 40.0823 24.0755 39.6863L22.3783 36.9165H1.36297C0.466051 36.8852 0.003909 36.5048 5.0906e-08 35.5741V28.8673H1.69966V20.3579H5.0906e-08V13.7439C-0.000221211 12.9133 0.72087 12.3447 1.54116 12.3088H18.45C17.7408 11.5081 17.3949 11.2203 16.8921 10.243C16.4996 9.43281 16.0464 6.9184 16.206 4.94467C16.2985 3.79912 16.2913 2.61398 16.8166 1.78808C17.2251 1.14583 18.0416 0.76342 18.9264 0.510297C23.7317 -0.801415 39.2919 0.260419 42.0622 5.51848C42.2851 7.80669 41.0146 10.1985 40.1905 12.3088H52.9016C53.6493 12.3085 54.3233 12.9841 54.3223 13.7337V20.3579H51.381Z"
          fill="#F87517"/>
    <path fill-rule="evenodd" clip-rule="evenodd"
          d="M21.765 32.0095L21.5392 31.9738L21.3183 31.8977L21.0913 31.8043L20.8815 31.7049L20.6704 31.5477L20.4999 31.3955L20.3576 31.2138L20.2325 31.026L20.2239 30.8935L20.2497 30.7487L20.2817 30.6211L20.348 30.4812L20.4033 30.3646L20.4757 30.2419L20.5653 30.1131L20.6377 29.9904L20.7728 29.826L20.8784 29.6334L21.0073 29.4518L21.1191 29.2763L21.2479 29.0947L21.3719 28.9536L21.513 28.8064L21.6837 28.6874L21.5758 28.2223L21.4077 28.1854L21.2225 28.1547L21.0482 28.1007L20.8801 28.0638L20.6997 27.9925L20.5475 27.8919L20.4236 27.7618L20.3169 27.6255L20.333 27.2905L20.4005 26.9371L20.4915 26.5947L20.6401 26.2512L20.8009 25.9419L21.0084 25.6548L21.2625 25.3899L21.535 25.1764L21.5399 25.1359L21.4493 24.6646L21.3991 24.1983L21.355 23.7491L21.2877 23.2889L21.0852 23.2643L20.8766 23.2225L20.668 23.1807L20.4876 23.1095L20.3011 23.0211L20.1084 22.9155L19.9612 22.7743L19.8422 22.6037L19.8423 22.3325L19.889 22.0834L19.9762 21.8392L20.0978 21.5828L20.2721 21.3655L20.4292 21.1545L20.6269 20.9484L20.7901 20.7546L21.5867 20.2185L21.5758 19.9706L21.5526 19.6884L21.5355 19.4233L21.5012 19.1644L21.3281 19.168L21.1428 19.1372L20.9625 19.066L20.7993 18.9887L20.6643 18.8818L20.5232 18.7578L20.4226 18.6388L20.3098 18.4854L20.3061 18.3124L20.343 18.1442L20.4031 17.9872L20.4633 17.8301L20.5701 17.6951L20.6708 17.543L20.7948 17.4019L20.9078 17.2841L21.0268 17.1835L21.1459 17.083L21.2649 16.9824L21.4073 16.8927L21.5264 16.7922L21.6454 16.6916L21.7646 16.591L21.9008 16.4843L22.026 16.4009L22.145 16.3003L22.2874 16.2107L22.4126 16.1273L22.5488 16.0206L22.6802 15.9544L22.8225 15.8648L22.965 15.7752L22.9872 15.4574L22.986 15.1286L23.0021 14.7935L23.001 14.4646L22.9998 14.1358L22.9926 13.7897L22.9742 13.4669L22.9498 13.127L21.7252 12.518L19.9008 11.0963L19.6885 10.8815L19.4996 10.6777L19.2874 10.4629L19.1045 10.2763L18.9095 10.0554L18.755 9.8393L18.5709 9.5951L18.4618 9.34345L18.3185 8.56166L18.1923 7.77382L18.0894 6.99698L18.0271 6.22507L17.9586 5.4359L17.96 4.68L17.9958 3.91178L18.0611 3.17181L18.3961 2.91662L18.7607 2.68968L19.1719 2.48486L19.6186 2.32548L20.0715 2.18329L20.5882 2.05702L21.1 1.97124L21.6289 1.87935L22.1701 1.82182L22.7579 1.78642L23.3519 1.7682L23.9287 1.7561L24.5349 1.77218L25.1411 1.78833L25.7302 1.8106L26.3253 1.85006L26.9033 1.89565L27.4703 1.96453L28.0078 2.00517L28.5404 2.0863L29.0435 2.13925L29.5184 2.22156L29.981 2.26957L30.3982 2.35314L30.786 2.40845L31.1223 2.48221L31.4119 2.53384L31.6782 2.5744L31.8696 2.62234L32.0377 2.65922L32.1187 2.66903L32.142 2.68009L32.1003 2.88866L32.0474 3.12062L32.0056 3.32927L31.9466 3.54397L31.8938 3.77592L31.852 3.9845L31.8336 4.20414L31.8384 4.43492L32.0556 4.338L32.2667 4.2239L32.4668 4.13319L32.6718 4.00191L32.8658 3.894L33.0707 3.76272L33.2818 3.6487L33.4929 3.5346L33.7752 3.51137L34.0403 3.49426L34.3176 3.51152L34.601 3.54596L34.8674 3.58652L35.1398 3.64427L35.395 3.70822L35.6674 3.76597L35.9288 3.84702L36.2074 3.92196L36.4687 4.00301L36.7473 4.07794L37.0025 4.14189L37.2811 4.21682L37.5424 4.29788L37.8149 4.35563L38.1756 4.49812L38.5536 4.63442L38.9265 4.81121L39.2935 4.97088L39.6443 5.19436L39.9437 5.4362L40.2038 5.73077L40.3841 6.07321L40.4049 6.24011L40.3643 6.50644L40.2624 6.87211L40.1506 7.31876L39.9823 7.82427L39.8152 8.38753L39.5966 8.96915L39.378 9.55077L39.1545 10.1729L38.9469 10.7312L38.7565 11.2834L38.5478 11.784L38.3783 12.2319L38.2358 12.5927L38.1315 12.843L38.0713 13L38.0835 13.0344L38.1068 13.0455L38.1191 13.0798L38.1142 13.1203L37.827 13.184L37.557 13.2416L37.2698 13.3054L36.9655 13.3753L36.6844 13.4562L36.3972 13.5199L36.0928 13.5898L35.7885 13.6596L35.4842 13.7295L35.197 13.7932L34.8926 13.8631L34.5993 13.9096L34.3183 13.9905L34.0249 14.0371L33.7377 14.1008L33.4444 14.1473L33.4064 14.2578L33.3793 14.3449L33.3584 14.4492L33.3204 14.5597L33.2995 14.664L33.2614 14.7744L33.2405 14.8787L33.2024 14.9892L33.465 15.1279L33.6932 15.2789L33.8993 15.4765L34.0883 15.6803L34.2317 15.9196L34.3409 16.1713L34.4046 16.4584L34.4279 16.7407L34.4167 17.0352L34.3357 17.2966L34.1847 17.5248L34.0103 17.7419L33.8066 17.9309L33.5795 18.1088L33.3463 18.2695L33.1241 18.4068L33.0296 18.5762L32.9755 18.7505L32.9104 18.948L32.9141 19.121L33.0834 19.2156L33.2306 19.3567L33.3545 19.4869L33.4674 19.6403L33.5802 19.7937L33.6588 19.9594L33.7323 20.1656L33.7765 20.3435L33.823 20.6369L33.8229 20.9081L33.7823 21.1744L33.684 21.4419L33.5625 21.6983L33.4005 21.9498L33.2261 22.167L33.0285 22.3731L32.9266 22.4676L32.8014 22.551L32.6823 22.6516L32.5572 22.735L32.4381 22.8356L32.3068 22.9018L32.1987 22.9791L32.0674 23.0454L31.8991 23.5509L32.1985 23.7927L32.3959 24.129L32.4965 24.5193L32.5565 24.9047L32.5343 25.2225L32.4839 25.5698L32.393 25.9122L32.2787 26.2435L32.1412 26.5637L31.9509 26.8447L31.7079 27.0864L31.4121 27.2888L30.1663 27.8689L30.1355 28.0542L30.2251 28.1966L30.338 28.35L30.3932 28.5046L30.4814 28.8606L30.5181 29.2349L30.5082 29.587L30.4578 29.9343L30.3263 30.2718L30.1655 30.581L29.9408 30.8742L29.6806 31.1221L29.5615 31.2226L29.4486 31.3404L29.3234 31.4238L29.181 31.5133L29.062 31.6139L28.9134 31.6863L28.7822 31.7525L28.6336 31.8249L28.4617 32.1574L28.2444 32.5255L28.0111 32.9574L27.7606 33.3955L27.5114 33.8912L27.2388 34.3759L26.9662 34.8605L26.6936 35.3451L26.4211 35.8299L26.1595 36.2912L25.9201 36.7059L25.7028 37.074L25.5014 37.3783L25.3283 37.6531L25.1761 37.8236L25.057 37.9242L24.8853 37.7143L24.5505 37.1559L24.0659 36.3409L23.5324 35.3884L22.9804 34.3844L22.464 33.4258L22.0372 32.6096L21.765 32.0095Z"
          fill="#C7C1E1"/>
    <path fill-rule="evenodd" clip-rule="evenodd"
          d="M21.6606 31.9885L21.4459 31.9296L21.214 31.8768L20.9869 31.7834L20.7943 31.6778L20.5833 31.5207L20.3956 31.3746L20.2532 31.1929L20.1453 30.9989L20.1196 30.8725L20.1454 30.7278L20.1773 30.6002L20.2437 30.4603L20.3161 30.3376L20.3652 30.2038L20.461 30.0921L20.5334 29.9695L20.6624 29.7879L20.7741 29.6124L20.9029 29.4309L21.0147 29.2554L21.1436 29.0738L21.2615 28.9155L21.4087 28.7855L21.5794 28.6665L21.4715 28.2014L21.3034 28.1645L21.1181 28.1338L20.9439 28.0797L20.7757 28.0428L20.5954 27.9716L20.4432 27.871L20.3193 27.7408L20.2237 27.5813L20.2286 27.2696L20.2962 26.9162L20.381 26.5566L20.5357 26.2302L20.6966 25.921L20.904 25.6339L21.1582 25.3689L21.4245 25.1382L21.4356 25.1149L21.3449 24.6437L21.2947 24.1773L21.2679 23.722L21.1833 23.2679L20.9808 23.2434L20.7722 23.2015L20.5808 23.1537L20.3833 23.0886L20.1796 23.0062L20.0041 22.8946L19.8569 22.7533L19.7379 22.5828L19.7208 22.3177L19.7847 22.0624L19.8657 21.8011L20.0107 21.5557L20.1678 21.3446L20.3421 21.1275L20.5225 20.9275L20.6858 20.7337L21.4824 20.1976L21.4714 19.9497L21.4482 19.6675L21.4311 19.4023L21.414 19.1373L21.2238 19.1471L21.0385 19.1163L20.8581 19.0451L20.7121 18.9616L20.5661 18.8781L20.4189 18.7369L20.3122 18.6007L20.2054 18.4644L20.2189 18.2853L20.2386 18.1233L20.2755 17.9551L20.3762 17.8031L20.4597 17.657L20.5665 17.5221L20.6733 17.3871L20.7863 17.2693L20.9053 17.1687L21.0415 17.062L21.1606 16.9614L21.2858 16.878L21.3988 16.7602L21.5411 16.6706L21.6602 16.57L21.7793 16.4694L21.9216 16.3799L22.0407 16.2793L22.1659 16.196L22.3083 16.1064L22.4274 16.0058L22.5698 15.9162L22.7011 15.85L22.8435 15.7604L22.8595 15.4255L22.8756 15.0905L22.8916 14.7554L22.8905 14.4265L22.8955 14.1149L22.8882 13.7687L22.8699 13.446L22.8455 13.106L21.638 12.4909L19.7965 11.0754L19.6014 10.8544L19.3953 10.6568L19.2003 10.4359L18.9941 10.2382L18.8223 10.0283L18.6445 9.80121L18.4838 9.56801L18.3575 9.32255L18.2141 8.54076L18.088 7.75285L17.979 6.95889L17.9166 6.18691L17.8542 5.415L17.8556 4.65902L17.8915 3.89088L17.974 3.14471L18.2857 2.87853L18.6564 2.66878L19.0676 2.46396L19.5082 2.28739L19.9671 2.16231L20.4777 2.01893L20.9895 1.93316L21.5245 1.85844L22.0829 1.7948L22.6536 1.76551L23.2476 1.74729L23.8415 1.729L24.4306 1.75128L25.0368 1.76743L25.6258 1.7897L26.221 1.82909L26.799 1.87467L27.3599 1.92637L27.9035 1.98427L28.4361 2.0654L28.9392 2.11828L29.4313 2.19454L29.8767 2.24867L30.2939 2.33224L30.6817 2.38755L31.018 2.46131L31.3247 2.50681L31.5739 2.5535L31.7653 2.60144L31.9334 2.63824L32.0144 2.64812L32.0377 2.65919L31.9959 2.86777L31.9431 3.09972L31.8951 3.29111L31.8423 3.52307L31.7833 3.73777L31.7649 3.95748L31.7293 4.18324L31.7279 4.39675L31.9513 4.3171L32.1624 4.20301L32.3564 4.0951L32.5675 3.98101L32.7786 3.86691L32.9835 3.7357L33.1775 3.62773L33.3825 3.49652L33.6475 3.4794L33.9359 3.47336L34.1961 3.49674L34.4734 3.51399L34.7631 3.56562L35.0354 3.62337L35.3079 3.68112L35.5631 3.74507L35.8416 3.82L36.103 3.90105L36.3755 3.9588L36.6368 4.03986L36.9154 4.11479L37.1767 4.19585L37.4553 4.27078L37.7277 4.32861L38.0713 4.47715L38.4492 4.61352L38.8222 4.79031L39.1891 4.94998L39.54 5.17338L39.8333 5.39804L40.0995 5.70987L40.2798 6.05231L40.2944 6.20203L40.26 6.48546L40.1581 6.85113L40.0463 7.29786L39.8779 7.80337L39.7048 8.34944L39.4862 8.93106L39.2737 9.52987L39.0612 10.1287L38.8426 10.7103L38.6461 11.2453L38.4434 11.7631L38.2678 12.1938L38.1426 12.5485L38.0271 12.8221L37.967 12.9791L37.9731 12.9963L38.0025 13.0245L38.0148 13.0589L38.0037 13.0822L37.7227 13.1631L37.4355 13.2269L37.1483 13.2906L36.8611 13.3543L36.574 13.418L36.2757 13.5051L35.9824 13.5517L35.6842 13.6387L35.397 13.7024L35.0927 13.7723L34.7993 13.8188L34.5011 13.9059L34.1906 13.9586L33.9034 14.0223L33.6334 14.0799L33.334 14.1092L33.3192 14.2307L33.2811 14.3412L33.2369 14.4344L33.2161 14.5387L33.189 14.6259L33.1571 14.7535L33.1362 14.8578L33.0981 14.9683L33.3607 15.107L33.5889 15.258L33.795 15.4556L33.9839 15.6594L34.1103 15.9049L34.2194 16.1565L34.277 16.4264L34.3064 16.7259L34.3124 17.0143L34.2314 17.2756L34.0804 17.5039L33.9232 17.7149L33.7022 17.91L33.4752 18.0878L33.2419 18.2485L33.0198 18.3859L32.9253 18.5553L32.8712 18.7295L32.8061 18.9271L32.8098 19.1001L32.9791 19.1947L33.1263 19.3358L33.2502 19.4659L33.3802 19.6132L33.4759 19.7728L33.5544 19.9385L33.628 20.1447L33.6721 20.3226L33.7297 20.5927L33.7185 20.8871L33.678 21.1535L33.5797 21.421L33.4582 21.6774L33.3133 21.9228L33.1218 22.1461L32.918 22.335L32.8223 22.4467L32.6971 22.5301L32.5891 22.6074L32.47 22.708L32.3276 22.7975L32.2024 22.8809L32.0944 22.9582L31.9631 23.0244L31.7948 23.53L32.0942 23.7718L32.2855 24.0909L32.3922 24.4984L32.435 24.8899L32.4128 25.2077L32.3562 25.5378L32.2887 25.8913L32.1744 26.2226L32.0308 26.5256L31.8294 26.8299L31.5864 27.0716L31.3078 27.2679L30.062 27.848L30.0312 28.0332L30.1208 28.1756L30.2103 28.318L30.2888 28.4837L30.3771 28.8397L30.431 29.2078L30.4038 29.5661L30.3473 29.8962L30.222 30.2509L30.044 30.5662L29.8365 30.8533L29.5763 31.1011L29.44 31.2078L29.321 31.3084L29.2019 31.409L29.0767 31.4924L28.9577 31.593L28.8091 31.6654L28.6778 31.7316L28.5293 31.804L28.3574 32.1365L28.14 32.5046L27.9067 32.9365L27.6563 33.3746L27.4009 33.8531L27.1345 34.3549L26.8619 34.8396L26.5893 35.3242L26.3167 35.8089L26.0723 36.2642L25.8157 36.685L25.5985 37.0531L25.3971 37.3573L25.2178 37.615L25.0718 37.8027L24.9527 37.9033L24.7982 37.6873L24.4461 37.135L23.9788 36.3139L23.428 35.3675L22.8761 34.3635L22.3536 33.3878L21.9268 32.5715L21.6606 31.9885Z"
          fill="#212121"/>
    <path fill-rule="evenodd" clip-rule="evenodd"
          d="M23.8239 32.7856L23.9724 32.7133L24.127 32.658L24.2756 32.5857L24.4474 32.5244L24.602 32.4692L24.7739 32.4079L24.9113 32.3589L25.0893 32.3147L25.2611 32.2534L25.4219 32.2154L25.5765 32.1603L25.7484 32.0989L25.9263 32.0548L26.0809 31.9996L26.2417 31.9617L26.4197 31.9175L26.3374 32.1212L26.2379 32.331L26.1495 32.5175L26.0439 32.7102L25.9445 32.92L25.845 33.1298L25.7394 33.3224L25.64 33.5322L25.5343 33.7249L25.4177 33.9408L25.3121 34.1335L25.2298 34.3372L25.1303 34.547L25.0481 34.7507L24.9486 34.9605L24.8663 35.1642L24.5204 34.629L24.2653 34.0228L24.0618 33.398L23.8239 32.7856Z"
          fill="#CFD0D0"/>
    <path fill-rule="evenodd" clip-rule="evenodd"
          d="M22.2932 30.2327L22.3202 30.1456L22.33 30.0647L22.3743 29.9714L22.3841 29.8904L22.4111 29.8033L22.4381 29.7162L22.4946 29.6573L22.5449 29.5812L22.837 29.477L23.1292 29.3728L23.4384 29.2624L23.7367 29.1753L24.0459 29.065L24.3503 28.9952L24.6657 28.9019L24.9701 28.8321L25.2744 28.7622L25.596 28.6863L25.9065 28.6335L26.217 28.5809L26.5447 28.5221L26.8552 28.4694L27.1546 28.44L27.4713 28.4045L27.5584 28.4315L27.6626 28.4525L27.7669 28.4734L27.8774 28.5114L27.9878 28.5495L28.0873 28.6109L28.1866 28.6723L28.275 28.757L28.2491 28.9018L28.2 29.0355L28.1398 29.1926L28.0735 29.3324L27.99 29.4785L27.9004 29.6073L27.7874 29.7251L27.6917 29.8368L27.4217 29.8944L27.1579 29.9692L26.894 30.0439L26.6362 30.1358L26.338 30.2229L26.0803 30.3149L25.8164 30.3896L25.5354 30.4706L25.2776 30.5625L25.0248 30.614L24.7376 30.6777L24.4787 30.712L24.2197 30.7463L23.9485 30.7462L23.6884 30.7228L23.422 30.6823L23.2772 30.6565L23.1435 30.6073L22.9926 30.5643L22.8478 30.5385L22.7079 30.4722L22.5619 30.3887L22.422 30.3224L22.2932 30.2327Z"
          fill="#FEFEFE"/>
    <path fill-rule="evenodd" clip-rule="evenodd"
          d="M23.1994 27.7785L23.5356 27.581L23.8892 27.3775L24.2488 27.191L24.6195 26.9813L24.9558 26.7838L25.3093 26.5802L25.6861 26.3876L26.0457 26.2012L26.4115 26.032L26.7944 25.8566L27.1601 25.6873L27.5553 25.5463L27.9506 25.4053L28.369 25.2753L28.7765 25.1687L29.2011 25.0559L29.2686 25.2449L29.2845 25.4523L29.2709 25.6315L29.223 25.8229L29.1518 26.0033L29.0633 26.1898L28.9749 26.3763L28.8633 26.5518L28.5134 26.6572L28.1403 26.7516L27.7845 26.8398L27.4346 26.9453L27.0677 27.0569L26.6946 27.1512L26.351 27.2738L25.995 27.3621L25.628 27.4736L25.2783 27.5791L24.9285 27.6845L24.5849 27.8071L24.2179 27.9187L23.8743 28.0413L23.5073 28.1529L23.1636 28.2756L23.1994 27.7785Z"
          fill="#CFD0D0"/>
    <path fill-rule="evenodd" clip-rule="evenodd"
          d="M21.9444 26.5412L22.0377 26.3142L22.1262 26.1277L22.2551 25.9461L22.3901 25.7817L22.5374 25.6517L22.7252 25.5265L22.8848 25.4309L23.0615 25.3291L23.2616 25.2383L23.4616 25.1476L23.6678 25.074L23.8507 24.9894L24.0569 24.9158L24.2569 24.825L24.4337 24.7233L24.6165 24.6386L24.9136 24.4939L25.2168 24.3664L25.526 24.256L25.8525 24.1395L26.1679 24.0464L26.5005 23.947L26.816 23.8539L27.1485 23.7545L27.4873 23.6724L27.8088 23.5965L28.1414 23.4971L28.4691 23.4383L28.825 23.35L29.1294 23.2802L29.4681 23.198L29.7896 23.1221L29.8485 23.1786L29.8264 23.2252L29.8276 23.2829L29.8178 23.3638L29.5857 23.8534L28.205 24.3267L24.151 26.1025L23.8589 26.2068L23.5852 26.3625L23.3349 26.5294L23.0783 26.679L22.8156 26.8115L22.5285 26.8752L22.2339 26.864L21.9431 26.7547L21.9444 26.5412Z"
          fill="#CFD0D0"/>
    <path fill-rule="evenodd" clip-rule="evenodd"
          d="M23.2448 24.1597L23.6818 23.81L24.1077 23.4837L24.5741 23.1623L25.0295 22.8642L25.4959 22.5428L25.9808 22.273L26.4594 21.986L26.9443 21.7161L27.4352 21.4634L27.9434 21.2047L28.4404 20.9692L28.9436 20.7509L29.4579 20.5093L29.9844 20.302L30.5048 20.0776L31.0485 19.8642L31.1234 19.8569L31.1872 19.8729L31.2621 19.8656L31.3369 19.8582L31.4007 19.8742L31.4706 19.9073L31.5345 19.9233L31.5934 19.9798L31.667 20.186L31.6939 20.37L31.6926 20.5836L31.6619 20.7689L31.5967 20.9664L31.5083 21.1529L31.42 21.3395L31.3143 21.5321L30.7534 22.0228L30.2649 22.1196L29.7826 22.2336L29.2942 22.3304L28.8118 22.4444L28.3356 22.5756L27.8705 22.6834L27.3833 22.8379L26.907 22.969L26.4137 23.1064L25.967 23.2658L25.4797 23.4203L25.033 23.5797L24.5519 23.7514L24.0941 23.9341L23.6645 24.0873L23.2067 24.2701L23.1552 24.2884L23.2448 24.1597Z"
          fill="#FEFEFE"/>
    <path fill-rule="evenodd" clip-rule="evenodd"
          d="M22.212 21.7L22.1986 21.608L22.2023 21.5098L22.2231 21.4055L22.2674 21.3122L22.3177 21.2362L22.3852 21.154L22.4294 21.0607L22.4859 21.0018L25.1835 20.0392L29.6571 18.7336L29.7601 18.6968L29.8645 18.7177L29.9577 18.7619L30.0387 18.7718L30.0374 18.9853L30.0067 19.1706L29.9526 19.3449L29.8642 19.5313L29.4776 19.8049L29.1339 19.9275L28.7669 20.0391L28.4061 20.1678L28.0453 20.2966L27.7016 20.4192L27.3518 20.5246L26.991 20.6534L26.6302 20.7822L26.2927 20.9219L25.9318 21.0507L25.5944 21.1905L25.2396 21.3364L24.9021 21.4762L24.5646 21.616L24.216 21.7792L23.8847 21.9361L23.6551 21.9987L23.4195 22.0439L23.201 22.0832L22.947 22.077L22.7507 22.0695L22.547 21.9873L22.3715 21.8756L22.212 21.7Z"
          fill="#CFD0D0"/>
    <path fill-rule="evenodd" clip-rule="evenodd"
          d="M23.752 18.9038L24.2429 18.6512L24.7056 18.428L25.1917 18.2159L25.6716 17.9865L26.1748 17.7682L26.667 17.5732L27.142 17.3844L27.6513 17.1832L28.1668 16.9993L28.665 16.8215L29.1633 16.6437L29.6788 16.4598L30.2005 16.293L30.722 16.1263L31.2375 15.9424L31.7591 15.7756L32.1088 15.9414L32.1947 16.1819L32.1934 16.3955L32.1515 16.6041L32.0288 16.8029L31.8827 16.9906L31.7366 17.1783L31.5844 17.3488L31.4321 17.5194L28.3849 18.3162L23.5983 19.8303L23.5898 19.6978L23.6045 19.5763L23.6083 19.4781L23.623 19.3567L23.6439 19.2524L23.6819 19.1419L23.714 19.0143L23.752 18.9038Z"
          fill="#FEFEFE"/>
    <path fill-rule="evenodd" clip-rule="evenodd"
          d="M22.5837 17.4221L23.0146 17.0552L23.4197 16.8332L23.837 16.6456L24.2653 16.4347L24.6826 16.247L25.1171 16.0532L25.5577 15.8766L25.9922 15.6829L26.4217 15.5296L26.8513 15.3763L27.2919 15.1997L27.762 15.0514L28.2087 14.892L28.6616 14.7498L29.1317 14.6014L29.6078 14.4702L30.0669 14.3452L30.1479 14.355L30.2227 14.3477L30.3098 14.3747L30.3847 14.3673L30.4718 14.3944L30.5479 14.4447L30.5896 14.5073L30.6203 14.5932L30.6177 14.7491L30.6042 14.9282L30.5501 15.1025L30.4961 15.2767L29.9978 15.4545L29.4995 15.6324L28.9779 15.7991L28.4735 15.9597L27.9691 16.1203L27.4646 16.281L26.9663 16.4588L26.4852 16.6304L25.987 16.8082L25.4997 16.9627L25.0014 17.1405L24.492 17.3416L24.011 17.5132L23.5127 17.6911L23.0377 17.8799L22.5688 18.0859L22.4732 17.9264L22.4696 17.7534L22.5297 17.5963L22.5837 17.4221Z"
          fill="#CFD0D0"/>
    <path fill-rule="evenodd" clip-rule="evenodd"
          d="M19.9759 9.46184L19.9147 9.0188L19.8302 8.56477L19.7923 8.13279L19.7544 7.70082L19.7275 7.24546L19.6957 6.83067L19.6921 6.38645L19.7058 5.93604L19.9917 6.08583L20.2886 6.21232L20.5745 6.36219L20.8653 6.47149L21.1623 6.59798L21.4641 6.6839L21.7721 6.78708L22.0679 6.85589L22.1169 6.99337L22.0739 7.41554L22.0541 7.84869L22.0282 8.26474L22.0023 8.68071L21.9826 9.11394L21.9566 9.52991L21.9369 9.96314L21.8705 10.3742L21.6496 10.2981L21.4054 10.2109L21.1784 10.1175L20.922 9.99596L20.706 9.87936L20.4435 9.74055L20.2042 9.61289L19.9759 9.46184Z"
          fill="#CFD0D0"/>
    <path fill-rule="evenodd" clip-rule="evenodd"
          d="M23.7025 11.0569L23.8338 10.9907L23.9884 10.9356L24.1259 10.8865L24.2744 10.8142L24.418 10.7823L24.5554 10.7332L24.6929 10.6842L24.8304 10.6352L24.9912 10.5972L25.1286 10.5481L25.2722 10.5163L25.4268 10.461L25.5643 10.412L25.719 10.3568L25.8625 10.3249L26.0172 10.2698L26.0208 10.4428L26.0245 10.6158L26.017 10.8122L25.9863 10.9975L25.9789 11.1938L25.9714 11.3902L25.9641 11.5866L25.9738 11.7768L25.6719 11.6908L25.3934 11.6159L25.0977 11.547L24.8191 11.4721L24.5516 11.3738L24.2669 11.2817L23.9761 11.1724L23.7025 11.0569Z"
          fill="#9D9E9E"/>
    <path fill-rule="evenodd" clip-rule="evenodd"
          d="M23.3822 6.79368L23.3516 6.70776L23.3736 6.66114L23.3957 6.61453L23.4755 6.56667L23.8094 6.52507L24.1923 6.34968L24.5863 6.15099L24.9692 5.9756L25.3632 5.77691L25.7461 5.60152L26.1291 5.42614L26.5292 5.24463L26.9121 5.06924L27.3183 4.90492L27.7185 4.72341L28.1075 4.56521L28.5199 4.41807L28.9495 4.26481L29.3618 4.11767L29.7742 3.97053L30.1927 3.84058L30.1853 4.03691L30.1546 4.22218L30.1239 4.40752L30.0992 4.60997L30.0808 4.82969L30.0844 5.00271L30.1003 5.21011L30.1677 5.39907L29.9456 5.53647L29.7234 5.67387L29.4951 5.79402L29.2497 5.92036L29.0214 6.04058L28.7759 6.16692L28.5415 6.26995L28.2898 6.37911L28.0616 6.49925L27.81 6.60841L27.5583 6.71757L27.3301 6.83778L27.0784 6.94694L26.844 7.0499L26.6219 7.1873L26.3874 7.29034L26.369 7.50998L26.3443 7.7125L26.3026 7.92108L26.2952 8.11741L26.2595 8.34325L26.2349 8.5457L26.1932 8.75435L26.1918 8.96787L25.9734 9.00703L25.7782 9.05733L25.5659 9.11368L25.3769 9.18116L25.1707 9.2547L24.9817 9.32218L24.7927 9.38959L24.5865 9.4632L24.4037 9.54779L24.2208 9.63239L24.044 9.73424L23.855 9.80165L23.6721 9.88625L23.4954 9.9881L23.3125 10.0727L23.1296 10.1574L23.1322 9.73026L23.1409 9.32041L23.184 8.89824L23.2099 8.48227L23.253 8.06011L23.296 7.63794L23.3219 7.22197L23.3822 6.79368Z"
          fill="#9D9E9E"/>
    <path fill-rule="evenodd" clip-rule="evenodd"
          d="M28.2292 8.70587L28.4734 8.79304L28.7004 8.88642L28.9384 8.95641L29.1765 9.0264L29.4256 9.07316L29.6514 9.10878L29.9005 9.15547L30.1607 9.17892L30.3975 9.19124L30.6577 9.21462L30.9117 9.22082L31.1596 9.2099L31.3964 9.22222L31.6566 9.2456L31.9106 9.25179L32.1646 9.25799L32.4997 9.27406L32.8286 9.27296L33.1574 9.27178L33.5035 9.26455L33.8434 9.24006L34.1772 9.19847L34.511 9.15687L34.8792 9.10296L35.2069 9.04417L35.5457 8.96201L35.8844 8.87992L36.2403 8.79164L36.5668 8.67519L36.8993 8.57584L37.2197 8.4422L37.529 8.33179L37.4099 8.70365L37.2796 9.09875L37.1494 9.49385L37.0193 9.88895L36.8424 10.262L36.7122 10.6571L36.5587 11.0412L36.388 11.4314L36.015 11.5258L35.6308 11.6435L35.2687 11.7145L34.8834 11.7745L34.5042 11.8518L34.1299 11.8885L33.7556 11.9251L33.4046 11.9729L33.0069 11.9986L32.6326 12.0353L32.2694 12.0487L31.889 12.0682L31.5085 12.0877L31.1514 12.1183L30.7771 12.155L30.3966 12.1745L30.2408 12.1721L30.0911 12.1868L29.9119 12.1732L29.7622 12.1879L29.6063 12.1853L29.4333 12.189L29.2713 12.1693L29.1154 12.1668L28.9657 12.1815L28.8038 12.1618L28.6418 12.1421L28.4859 12.1396L28.3239 12.1199L28.1681 12.1174L28.0233 12.0916L27.8613 12.0719L28.2292 8.70587Z"
          fill="#CFD0D0"/>
    <path fill-rule="evenodd" clip-rule="evenodd"
          d="M19.9174 4.1947L20.0009 4.04874L20.0966 3.93708L20.2096 3.8193L20.3176 3.742L20.4661 3.66965L20.6036 3.62061L20.741 3.57156L20.8957 3.51639L21.3191 3.34594L21.7315 3.19881L22.139 3.09216L22.5636 2.97939L22.9722 2.93042L23.3981 2.87525L23.8362 2.85452L24.2339 2.82886L24.6609 2.83144L25.0879 2.83402L25.515 2.8366L25.931 2.86249L26.3409 2.87127L26.7741 2.89096L27.184 2.89973L27.5939 2.90844L27.8307 2.92075L28.0848 2.92695L28.3388 2.93315L28.5756 2.94554L28.8247 2.99222L29.0849 3.0156L29.3229 3.08559L29.561 3.15566L29.183 3.29056L28.7939 3.44876L28.4159 3.58358L28.044 3.73566L27.6488 3.87668L27.2598 4.03488L26.8817 4.16978L26.4926 4.32798L26.1147 4.4628L25.7428 4.61488L25.3537 4.77308L24.9879 4.94235L24.6161 5.09443L24.2564 5.2808L23.8907 5.45007L23.5311 5.63652L23.3458 5.60576L23.1433 5.5812L22.9286 5.5222L22.7604 5.48532L22.569 5.43746L22.3776 5.38952L22.169 5.3477L21.9775 5.29983L21.7972 5.22859L21.5996 5.16346L21.402 5.09841L21.2045 5.03329L21.0069 4.96816L20.8265 4.89699L20.6229 4.81468L20.4425 4.74344L20.267 4.6317L20.1087 4.51384L20.002 4.37762L19.9174 4.1947Z"
          fill="#FEFEFE"/>
    <path fill-rule="evenodd" clip-rule="evenodd"
          d="M33.9035 4.95703L34.9098 5.06287L35.7036 5.22512L36.3185 5.37381L36.7664 5.54323L37.0645 5.72739L37.2363 5.93729L37.2693 6.13857L37.2214 6.33003L37.0814 6.53492L36.8838 6.74106L36.6395 6.92508L36.3658 7.08085L36.086 7.21943L35.8 7.34083L35.5595 7.42668L35.3471 7.48302L34.9446 7.54918L34.5359 7.59815L34.1334 7.66431L33.7419 7.70716L33.3332 7.75614L32.9245 7.80511L32.533 7.84796L32.1183 7.87975L31.7206 7.90534L31.323 7.93101L30.9365 7.93337L30.5438 7.91854L30.1511 7.90372L29.7522 7.87163L29.3706 7.8335L28.9939 7.75488L29.2492 7.54756L29.5511 7.36229L29.8236 7.14884L30.1195 6.94646L30.4214 6.76127L30.7 6.56501L31.002 6.37974L31.3272 6.20561L31.6181 6.04372L31.9434 5.86951L32.2453 5.68432L32.5656 5.5506L32.9081 5.37034L33.2284 5.23663L33.5488 5.10299L33.9035 4.95703Z"
          fill="#FEFEFE"/>
    <path fill-rule="evenodd" clip-rule="evenodd"
          d="M36.2375 9.48999L35.7892 10.9477L29.361 11.4981L29.4359 11.4908L29.6543 11.4515L29.9587 11.3817L30.3661 11.2751L30.8607 11.1954L31.4117 11.0569L32.0033 10.9233L32.6231 10.7603L33.2429 10.5973L33.8455 10.4403L34.4247 10.2724L34.9636 10.0995L35.4275 9.93399L35.7994 9.78191L36.0902 9.62002L36.2375 9.48999Z"
          fill="#9D9E9E"/>
    <path fill-rule="evenodd" clip-rule="evenodd"
          d="M52.6608 35.3339H44.4561V30.4496H45.5006L42.674 25.9124L41.3626 27.056V30.4496H42.9253V35.3339H35.1012C34.7688 35.3311 34.5973 35.1106 34.5867 34.8418V30.4496H36.2864V18.7753H34.5867V14.5471C34.5759 14.1937 34.7569 13.9074 35.2771 13.8911H42.2095H42.9253V18.7753H41.3626V21.5198L44.4776 18.7753H44.4561V13.8911H52.0979C52.5035 13.8947 52.7288 14.0565 52.7398 14.5118V18.7753H50.7837L46.3039 22.7185L51.1268 30.4496H53.2058V34.7713C53.2032 35.1003 53.0649 35.3367 52.6608 35.3339Z"
          fill="#FEFEFE"/>
    <path d="M52.3537 34.4818H45.3081V31.3016H47.0352L42.8682 24.6125L40.5105 26.6686V31.3016H42.0732V34.4818H35.4388V31.3016H37.1384V17.9232H35.4388V14.7432H42.0732V17.9232H40.5105V23.4062L46.7337 17.9232H45.3081V14.7432H51.8877V17.9232H50.4621L45.1984 22.5564L50.654 31.3016H52.3537V34.4818Z"
          fill="#212121"/>
    <path fill-rule="evenodd" clip-rule="evenodd"
          d="M18.6693 35.3339H10.7114V30.4496H12.6031V26.5337H8.3581V30.4496H10.2497V35.3339H2.30069C1.87713 35.3298 1.57267 35.109 1.58226 34.5198V30.4496H3.28191V18.7753H1.58226V14.6579C1.56943 14.2218 1.81798 13.9119 2.40919 13.8911H10.2497V18.7753H8.3581V22.1155H12.6031V18.7753H10.7114V13.8911H18.3601C19.0356 13.8898 19.3754 14.3708 19.379 14.8771V18.7753H17.6793V30.4496H19.379V34.5437C19.3818 35.0405 19.1682 35.3229 18.6693 35.3339Z"
          fill="#FEFEFE"/>
    <path d="M18.5271 34.4818H11.5637V31.3016H13.4553V25.6816H7.50619V31.3016H9.39783V34.4818H2.43451V31.3016H4.13417V17.9232H2.43451V14.7432H9.39783V17.9232H7.50619V22.9676H13.4553V17.9232H11.5637V14.7432H18.5271V17.9232H16.8273V31.3016H18.5271V34.4818Z"
          fill="#212121"/>
</svg>
