<svg width="280" height="48" viewBox="0 0 280 48" fill="none" xmlns="http://www.w3.org/2000/svg">
    <path d="M86.0582 38.1982H80.3525V34.5946H81.0732V32.3723H78.7308V34.5946H79.4516V38.1982H73.7458V34.5946H74.7068V27.3873H73.7458V23.7837H79.4516V27.3873H78.7308V29.4894H81.0732V27.3873H80.3525V23.7837H86.0582V27.3873H85.0972V34.5946H86.0582V38.1982ZM99.7519 38.1982H94.0261V34.5946H94.9871L94.6267 33.3934H92.0242L91.6639 34.5946H92.6248V38.1982H86.899V34.5946H87.86L91.4636 23.7837H95.1873L98.7909 34.5946H99.7519V38.1982ZM93.8861 30.9909L93.3254 29.1892L92.7648 30.9909H93.8861ZM112.905 40H109.301V38.1982H104.196V40H100.593V34.5946H101.253L101.914 33.9339V27.3873H100.953V23.7837H112.905V27.3873H111.944V34.5946H112.905V40ZM107.92 34.5946V27.3873H105.938V34.5946H107.92ZM125.037 38.1982H114.346V34.5946H115.307V27.3873H114.346V23.7837H125.037V28.4084H121.253V27.3873H119.271V29.4894H122.494V32.3723H119.271V34.5946H121.253V33.5134H125.037V38.1982ZM143.976 38.1982H138.11V34.5946H138.771L137.47 32.3323L136.789 32.9729V34.5946H137.45V38.1982H132.344V34.5946H133.005V32.9729L132.324 32.3323L131.023 34.5946H131.684V38.1982H125.818V34.5946H126.779L129.782 29.9699L127.019 27.3873H126.058V23.7837H131.684V27.3873H131.023L133.005 29.2491V27.3873H132.344V23.7837H137.45V27.3873H136.789V29.2491L138.771 27.3873H138.11V23.7837H143.736V27.3873H142.775L140.012 29.9699L143.015 34.5946H143.976V38.1982ZM157.249 38.1982H151.544V34.5946H152.264V32.3723H149.922V34.5946H150.643V38.1982H144.937V34.5946H145.898V27.3873H144.937V23.7837H150.643V27.3873H149.922V29.4894H152.264V27.3873H151.544V23.7837H157.249V27.3873H156.288V34.5946H157.249V38.1982ZM175.928 38.1982H170.282V34.5946H171.003V27.3873H170.042V23.7837H175.928V27.3873H174.967V34.5946H175.928V38.1982ZM169.201 35.6756L166.679 38.1982H158.691V34.5946H159.652V27.3873H158.691V23.7837H164.697V27.3873H163.616V29.1892H166.679L169.201 31.7117V35.6756ZM165.418 34.5946V32.4324H163.616V34.5946H165.418ZM186.879 21.7417L185.438 22.8829H181.634L180.192 21.7417V20H182.595V21.081H184.477V20H186.879V21.7417ZM189.702 38.1982H183.996V34.5946H184.717V31.5915L182.355 33.8738V34.5946H183.075V38.1982H177.37V34.5946H178.33V27.3873H177.37V23.7837H183.075V27.3873H182.355V30.3904L184.717 28.108V27.3873H183.996V23.7837H189.702V27.3873H188.741V34.5946H189.702V38.1982ZM210.987 38.1982H204.741V34.5946H205.782L204.361 32.132L203.42 32.9729V34.5946H204.08V38.1982H198.675V34.5946H199.636V27.3873H198.675V23.7838H204.08V27.3873H203.42V29.1492L205.382 27.3873H204.741V23.7838H210.727V27.3873H209.766L207.143 29.6897L209.966 34.5946H210.987V38.1982ZM222.459 30.2702L219.936 32.7927H216.873V34.5946H217.954V38.1982H211.948V34.5946H212.909V27.3873H211.948V23.7838H219.936L222.459 26.3063V30.2702ZM218.495 29.5495V27.3873H216.873V29.5495H218.495ZM234.11 38.1982H223.42V34.5946H224.381V27.3873H223.42V23.7838H234.11V28.4084H230.327V27.3873H228.345V29.4894H231.568V32.3723H228.345V34.5946H230.327V33.5134H234.11V38.1982ZM247.684 38.1982H241.978V34.5946H242.699V27.3873H240.357V34.5946H241.077V38.1982H235.372V34.5946H236.333V27.3873H235.372V23.7838H247.684V27.3873H246.723V34.5946H247.684V38.1982ZM259.816 38.1982H249.125V34.5946H250.086V27.3873H249.125V23.7838H259.816V28.4084H256.032V27.3873H254.05V29.4894H257.273V32.3723H254.05V34.5946H256.032V33.5134H259.816V38.1982ZM278.755 38.1982H272.889V34.5946H273.55L272.249 32.3323L271.568 32.9729V34.5946H272.229V38.1982H267.123V34.5946H267.784V32.9729L267.103 32.3323L265.802 34.5946H266.463V38.1982H260.597V34.5946H261.558L264.561 29.97L261.798 27.3873H260.837V23.7838H266.463V27.3873H265.802L267.784 29.2492V27.3873H267.123V23.7838H272.229V27.3873H271.568V29.2492L273.55 27.3873H272.889V23.7838H278.515V27.3873H277.554L274.791 29.97L277.794 34.5946H278.755V38.1982Z"
          fill="#212121" stroke="#FEFEFE" stroke-width="0.666709" stroke-miterlimit="22.9256"/>
    <path fill-rule="evenodd" clip-rule="evenodd"
          d="M61.6572 24.4295L58.0283 27.6237L62.4057 34.6408H65.7459V42.5202C65.7487 43.4466 65.2404 44.2897 64.1495 44.2998H33.0221L30.303 47.736C29.9957 48.1102 29.1594 48.0988 28.8906 47.6235L26.854 44.2998H1.63557C0.559261 44.2623 0.0046908 43.8058 6.10872e-08 42.6889V34.6408H2.03959V24.4295H6.10872e-08V16.4927C-0.000265453 15.4959 0.865044 14.8136 1.84939 14.7705H22.14C21.289 13.8097 20.8739 13.4644 20.2705 12.2916C19.7995 11.3194 19.2557 8.30207 19.4472 5.9336C19.5582 4.55895 19.5496 3.13677 20.1799 2.1457C20.6701 1.375 21.6499 0.916104 22.7117 0.612356C28.478 -0.961698 47.1503 0.312503 50.4747 6.62217C50.7422 9.36803 49.2175 12.2381 48.2286 14.7705H63.4819C64.3791 14.7703 65.188 15.581 65.1867 16.4804V24.4295H61.6572Z"
          fill="#F87517"/>
    <path fill-rule="evenodd" clip-rule="evenodd"
          d="M26.118 38.4115L25.847 38.3686L25.5819 38.2773L25.3095 38.1652L25.0578 38.046L24.8045 37.8573L24.5999 37.6747L24.4291 37.4567L24.2789 37.2314L24.2687 37.0723L24.2997 36.8985L24.338 36.7454L24.4175 36.5776L24.4839 36.4376L24.5708 36.2904L24.6784 36.1358L24.7653 35.9886L24.9273 35.7913L25.0541 35.5601L25.2088 35.3422L25.3429 35.1317L25.4975 34.9138L25.6463 34.7445L25.8157 34.5678L26.0205 34.425L25.891 33.8668L25.6893 33.8226L25.4669 33.7857L25.2578 33.7209L25.0561 33.6767L24.8396 33.5912L24.657 33.4704L24.5084 33.3142L24.3803 33.1507L24.3996 32.7487L24.4806 32.3246L24.5898 31.9137L24.7681 31.5015L24.9611 31.1304L25.2101 30.7859L25.515 30.4679L25.842 30.2118L25.8479 30.1632L25.7391 29.5977L25.6789 29.038L25.626 28.499L25.5452 27.9468L25.3022 27.9172L25.0519 27.8671L24.8016 27.8169L24.5851 27.7314L24.3613 27.6254L24.1301 27.4987L23.9534 27.3293L23.8107 27.1245L23.8108 26.799L23.8668 26.5002L23.9715 26.2071L24.1173 25.8994L24.3265 25.6388L24.5151 25.3855L24.7523 25.1382L24.9481 24.9056L25.9041 24.2623L25.891 23.9649L25.8631 23.6262L25.8426 23.3081L25.8014 22.9973L25.5938 23.0017L25.3714 22.9648L25.155 22.8794L24.9591 22.7865L24.7971 22.6583L24.6278 22.5095L24.5071 22.3667L24.3717 22.1826L24.3674 21.9749L24.4116 21.7731L24.4837 21.5847L24.556 21.3962L24.6841 21.2342L24.8049 21.0517L24.9538 20.8823L25.0893 20.741L25.2321 20.6203L25.3751 20.4996L25.5179 20.3789L25.6887 20.2714L25.8317 20.1508L25.9745 20.03L26.1175 19.9093L26.2809 19.7813L26.4312 19.6812L26.574 19.5604L26.7449 19.453L26.8951 19.3529L27.0586 19.2248L27.2162 19.1454L27.3871 19.0379L27.558 18.9304L27.5846 18.549L27.5832 18.1544L27.6025 17.7523L27.6011 17.3576L27.5997 16.963L27.5911 16.5477L27.569 16.1604L27.5397 15.7524L26.0703 15.0217L23.8809 13.3156L23.6262 13.0579L23.3996 12.8134L23.1449 12.5556L22.9254 12.3316L22.6914 12.0666L22.5059 11.8073L22.2851 11.5142L22.1541 11.2122L21.9822 10.2741L21.8307 9.32869L21.7073 8.39647L21.6325 7.47018L21.5503 6.52318L21.552 5.6161L21.595 4.69423L21.6733 3.80626L22.0754 3.50004L22.5128 3.22771L23.0063 2.98193L23.5423 2.79067L24.0858 2.62004L24.7058 2.46852L25.3199 2.36559L25.9547 2.25531L26.6041 2.18628L27.3095 2.1438L28.0222 2.12193L28.7144 2.10742L29.4419 2.12671L30.1694 2.1461L30.8763 2.17282L31.5904 2.22017L32.284 2.27487L32.9643 2.35753L33.6094 2.4063L34.2485 2.50366L34.8522 2.5672L35.4221 2.66597L35.9772 2.72359L36.4779 2.82386L36.9432 2.89024L37.3467 2.97875L37.6943 3.0407L38.0138 3.08938L38.2436 3.14691L38.4453 3.19116L38.5424 3.20293L38.5704 3.21621L38.5203 3.46649L38.4569 3.74484L38.4068 3.99522L38.336 4.25286L38.2726 4.53121L38.2224 4.7815L38.2003 5.04507L38.206 5.322L38.4668 5.2057L38.7201 5.06878L38.9602 4.95992L39.2061 4.80239L39.4389 4.6729L39.6849 4.51536L39.9381 4.37854L40.1915 4.24162L40.5302 4.21374L40.8483 4.19321L41.1811 4.21392L41.5212 4.25525L41.8408 4.30393L42.1678 4.37323L42.474 4.44996L42.8009 4.51926L43.1146 4.61653L43.4489 4.70644L43.7624 4.80371L44.0967 4.89363L44.403 4.97037L44.7373 5.06029L45.0509 5.15755L45.3778 5.22685L45.8107 5.39784L46.2643 5.5614L46.7118 5.77355L47.1522 5.96516L47.5732 6.23333L47.9324 6.52353L48.2446 6.87702L48.4609 7.28795L48.4859 7.48823L48.4372 7.80782L48.3148 8.24663L48.1807 8.78261L47.9788 9.38922L47.7782 10.0651L47.5159 10.7631L47.2536 11.461L46.9854 12.2076L46.7363 12.8775L46.5078 13.5402L46.2574 14.1409L46.054 14.6784L45.883 15.1113L45.7578 15.4117L45.6855 15.6001L45.7002 15.6414L45.7282 15.6546L45.7429 15.6959L45.7371 15.7445L45.3924 15.8209L45.0684 15.8901L44.7238 15.9665L44.3586 16.0504L44.0213 16.1475L43.6767 16.224L43.3114 16.3078L42.9462 16.3916L42.581 16.4755L42.2363 16.552L41.8711 16.6358L41.5191 16.6916L41.1819 16.7887L40.8299 16.8446L40.4853 16.9211L40.1333 16.9769L40.0876 17.1095L40.0552 17.214L40.0301 17.3391L39.9844 17.4717L39.9594 17.5969L39.9136 17.7294L39.8886 17.8545L39.8429 17.9871L40.158 18.1536L40.4318 18.3348L40.6792 18.5719L40.9059 18.8165L41.0781 19.1037L41.2091 19.4056L41.2855 19.7502L41.3134 20.089L41.3001 20.4424L41.2028 20.756L41.0216 21.0299L40.8124 21.2904L40.5679 21.5172L40.2954 21.7307L40.0155 21.9235L39.7489 22.0883L39.6355 22.2915L39.5706 22.5006L39.4925 22.7377L39.4969 22.9453L39.7001 23.0588L39.8767 23.2282L40.0254 23.3844L40.1608 23.5685L40.2962 23.7525L40.3905 23.9514L40.4787 24.1988L40.5318 24.4123L40.5876 24.7643L40.5875 25.0898L40.5387 25.4094L40.4209 25.7304L40.275 26.0381L40.0806 26.3399L39.8713 26.6005L39.6341 26.8478L39.5119 26.9612L39.3616 27.0613L39.2188 27.182L39.0686 27.2821L38.9257 27.4028L38.7681 27.4823L38.6385 27.5751L38.4808 27.6545L38.279 28.2611L38.6382 28.5514L38.8751 28.9549L38.9958 29.4233L39.0678 29.8857L39.0412 30.2671L38.9807 30.6839L38.8716 31.0947L38.7345 31.4923L38.5694 31.8766L38.3411 32.2138L38.0495 32.5038L37.6945 32.7466L36.1995 33.4427L36.1626 33.6651L36.2701 33.836L36.4056 34.0201L36.4718 34.2056L36.5776 34.6328L36.6217 35.0819L36.6098 35.5045L36.5493 35.9213L36.3916 36.3262L36.1986 36.6973L35.929 37.0491L35.6167 37.3466L35.4738 37.4672L35.3383 37.6086L35.1881 37.7087L35.0172 37.8161L34.8744 37.9368L34.6961 38.0236L34.5386 38.1031L34.3603 38.19L34.154 38.589L33.8933 39.0307L33.6133 39.549L33.3127 40.0746L33.0136 40.6695L32.6865 41.2511L32.3594 41.8327L32.0323 42.4143L31.7053 42.9959L31.3914 43.5495L31.1042 44.0472L30.8433 44.4889L30.6017 44.8541L30.394 45.1838L30.2113 45.3885L30.0684 45.5092L29.8623 45.2573L29.4605 44.5872L28.8791 43.6092L28.2388 42.4662L27.5764 41.2614L26.9568 40.1111L26.4447 39.1316L26.118 38.4115Z"
          fill="#C7C1E1"/>
    <path fill-rule="evenodd" clip-rule="evenodd"
          d="M25.9927 38.3863L25.7351 38.3156L25.4567 38.2523L25.1843 38.1402L24.9531 38.0135L24.6999 37.825L24.4747 37.6496L24.3039 37.4316L24.1744 37.1989L24.1435 37.0472L24.1745 36.8734L24.2128 36.7203L24.2924 36.5524L24.3793 36.4053L24.4382 36.2447L24.5532 36.1107L24.6401 35.9635L24.7948 35.7456L24.9289 35.5351L25.0835 35.3172L25.2176 35.1066L25.3723 34.8887L25.5137 34.6988L25.6905 34.5428L25.8953 34.3999L25.7658 33.8418L25.5641 33.7976L25.3417 33.7607L25.1326 33.6958L24.9308 33.6515L24.7144 33.5661L24.5319 33.4453L24.3832 33.2891L24.2684 33.0977L24.2743 32.7236L24.3555 32.2995L24.4572 31.8681L24.6428 31.4764L24.8359 31.1053L25.0848 30.7608L25.3898 30.4428L25.7094 30.166L25.7227 30.1381L25.6139 29.5725L25.5536 29.0129L25.5214 28.4666L25.42 27.9217L25.177 27.8922L24.9267 27.842L24.6969 27.7846L24.4599 27.7064L24.2155 27.6076L24.0049 27.4736L23.8282 27.3042L23.6855 27.0994L23.665 26.7814L23.7416 26.475L23.8389 26.1615L24.0128 25.8669L24.2013 25.6137L24.4105 25.3532L24.627 25.1131L24.8229 24.8806L25.7789 24.2373L25.7657 23.9398L25.7378 23.6011L25.7173 23.2829L25.6968 22.9649L25.4685 22.9766L25.2462 22.9397L25.0297 22.8542L24.8545 22.754L24.6793 22.6539L24.5026 22.4845L24.3746 22.321L24.2465 22.1574L24.2627 21.9425L24.2863 21.7481L24.3306 21.5463L24.4514 21.3638L24.5516 21.1886L24.6797 21.0266L24.8079 20.8647L24.9435 20.7233L25.0863 20.6026L25.2498 20.4745L25.3927 20.3538L25.5429 20.2537L25.6785 20.1124L25.8493 20.0049L25.9922 19.8842L26.1351 19.7635L26.3059 19.656L26.4489 19.5353L26.5991 19.4353L26.77 19.3278L26.9128 19.207L27.0837 19.0996L27.2412 19.0201L27.4121 18.9127L27.4314 18.5107L27.4506 18.1087L27.4699 17.7066L27.4685 17.312L27.4745 16.938L27.4658 16.5226L27.4438 16.1353L27.4145 15.7274L25.9656 14.9892L23.7558 13.2906L23.5217 13.0254L23.2743 12.7883L23.0403 12.5232L22.7929 12.286L22.5868 12.0341L22.3734 11.7616L22.1806 11.4818L22.0289 11.1872L21.8569 10.2491L21.7055 9.30356L21.5747 8.35081L21.4999 7.42444L21.4251 6.49814L21.4268 5.59097L21.4698 4.6692L21.5687 3.7738L21.9428 3.45439L22.3877 3.20268L22.8811 2.9569L23.4098 2.74502L23.9606 2.59492L24.5733 2.42286L25.1874 2.31993L25.8294 2.23028L26.4995 2.1539L27.1843 2.11876L27.8971 2.0969L28.6098 2.07495L29.3167 2.10168L30.0442 2.12106L30.751 2.14779L31.4652 2.19505L32.1588 2.24975L32.8318 2.31179L33.4842 2.38127L34.1233 2.47862L34.727 2.54208L35.3176 2.63359L35.852 2.69855L36.3527 2.79883L36.8181 2.86521L37.2216 2.95371L37.5896 3.00832L37.8886 3.06434L38.1183 3.12187L38.3201 3.16604L38.4172 3.1779L38.4452 3.19117L38.395 3.44147L38.3317 3.71981L38.2741 3.94948L38.2108 4.22783L38.14 4.48547L38.1178 4.74912L38.0751 5.02003L38.0735 5.27625L38.3416 5.18067L38.5949 5.04375L38.8276 4.91427L39.0809 4.77735L39.3342 4.64043L39.5802 4.48298L39.813 4.35342L40.0589 4.19597L40.377 4.17543L40.7231 4.16818L41.0353 4.19623L41.3681 4.21694L41.7156 4.27889L42.0425 4.34819L42.3694 4.41749L42.6757 4.49422L43.0099 4.58415L43.3236 4.68141L43.6505 4.75071L43.9642 4.84798L44.2985 4.9379L44.612 5.03517L44.9463 5.12509L45.2733 5.19447L45.6855 5.37272L46.139 5.53637L46.5867 5.74851L47.0269 5.94013L47.448 6.20821L47.7999 6.47779L48.1194 6.85199L48.3357 7.26291L48.3533 7.44258L48.312 7.7827L48.1897 8.22151L48.0555 8.75758L47.8535 9.36419L47.6457 10.0195L47.3834 10.7174L47.1284 11.436L46.8734 12.1546L46.6111 12.8525L46.3753 13.4945L46.1321 14.1159L45.9214 14.6327L45.7711 15.0583L45.6325 15.3867L45.5604 15.5751L45.5677 15.5957L45.603 15.6296L45.6177 15.6708L45.6044 15.6988L45.2672 15.7959L44.9226 15.8724L44.578 15.9488L44.2333 16.0253L43.8888 16.1018L43.5309 16.2063L43.1789 16.2621L42.821 16.3666L42.4764 16.4431L42.1112 16.5269L41.7592 16.5827L41.4013 16.6872L41.0287 16.7504L40.6841 16.8269L40.3601 16.896L40.0008 16.9312L39.9831 17.077L39.9373 17.2096L39.8843 17.3215L39.8593 17.4466L39.8268 17.5512L39.7885 17.7043L39.7634 17.8295L39.7177 17.9621L40.0328 18.1285L40.3066 18.3097L40.554 18.5469L40.7807 18.7914L40.9323 19.086L41.0633 19.388L41.1324 19.7119L41.1676 20.0712L41.1749 20.4174L41.0776 20.7309L40.8964 21.0048L40.7078 21.2581L40.4427 21.4921L40.1702 21.7055L39.8903 21.8984L39.6237 22.0633L39.5103 22.2665L39.4454 22.4755L39.3673 22.7126L39.3717 22.9203L39.5749 23.0337L39.7515 23.2031L39.9002 23.3592L40.0563 23.536L40.1711 23.7275L40.2652 23.9263L40.3536 24.1737L40.4065 24.3873L40.4756 24.7113L40.4622 25.0647L40.4136 25.3843L40.2957 25.7053L40.1498 26.0131L39.9759 26.3075L39.7461 26.5754L39.5016 26.8022L39.3867 26.9362L39.2364 27.0363L39.1069 27.129L38.9639 27.2497L38.7931 27.3572L38.6429 27.4573L38.5133 27.5499L38.3557 27.6294L38.1538 28.2361L38.513 28.5263L38.7426 28.9093L38.8706 29.3983L38.922 29.868L38.8954 30.2494L38.8275 30.6456L38.7464 31.0697L38.6093 31.4672L38.4369 31.8309L38.1953 32.1961L37.9037 32.4861L37.5693 32.7216L36.0744 33.4177L36.0374 33.64L36.1449 33.8109L36.2523 33.9817L36.3466 34.1806L36.4524 34.6077L36.5171 35.0495L36.4846 35.4795L36.4168 35.8756L36.2664 36.3012L36.0528 36.6795L35.8038 37.0241L35.4916 37.3215L35.328 37.4495L35.1852 37.5702L35.0423 37.691L34.892 37.7911L34.7492 37.9118L34.5709 37.9986L34.4133 38.0781L34.2351 38.1649L34.0288 38.564L33.768 39.0057L33.4881 39.524L33.1875 40.0496L32.881 40.6238L32.5613 41.226L32.2342 41.8077L31.9071 42.3892L31.58 42.9708L31.2868 43.5171L30.9789 44.0221L30.7181 44.4639L30.4765 44.8289L30.2614 45.1382L30.0861 45.3634L29.9432 45.4841L29.7578 45.2249L29.3353 44.5621L28.7745 43.5768L28.1136 42.4412L27.4513 41.2364L26.8243 40.0655L26.3121 39.086L25.9927 38.3863Z"
          fill="#212121"/>
    <path fill-rule="evenodd" clip-rule="evenodd"
          d="M28.5887 39.3429L28.7668 39.2561L28.9524 39.1898L29.1307 39.103L29.3368 39.0295L29.5224 38.9632L29.7286 38.8897L29.8936 38.8308L30.1072 38.7778L30.3133 38.7043L30.5062 38.6587L30.6918 38.5925L30.898 38.5189L31.1115 38.4659L31.2971 38.3997L31.49 38.3542L31.7036 38.3011L31.6048 38.5456L31.4855 38.7974L31.3794 39.0212L31.2527 39.2524L31.1334 39.5042L31.014 39.756L30.8872 39.9871L30.7679 40.2389L30.6412 40.47L30.5012 40.7292L30.3745 40.9604L30.2758 41.2048L30.1564 41.4566L30.0577 41.701L29.9383 41.9528L29.8396 42.1972L29.4245 41.555L29.1184 40.8275L28.8741 40.0778L28.5887 39.3429Z"
          fill="#CFD0D0"/>
    <path fill-rule="evenodd" clip-rule="evenodd"
          d="M26.7518 36.2792L26.7843 36.1746L26.796 36.0775L26.8491 35.9656L26.8609 35.8683L26.8933 35.7638L26.9258 35.6593L26.9935 35.5887L27.0539 35.4973L27.4044 35.3723L27.755 35.2472L28.1261 35.1147L28.484 35.0103L28.8551 34.8779L29.2203 34.7941L29.5989 34.6822L29.9641 34.5984L30.3293 34.5146L30.7152 34.4234L31.0878 34.3601L31.4604 34.2969L31.8536 34.2264L32.2262 34.1631L32.5855 34.1279L32.9655 34.0853L33.07 34.1177L33.1952 34.1429L33.3203 34.1679L33.4529 34.2136L33.5854 34.2592L33.7047 34.333L33.8239 34.4066L33.9299 34.5083L33.899 34.682L33.84 34.8425L33.7678 35.031L33.6882 35.1988L33.588 35.374L33.4805 35.5287L33.3449 35.67L33.23 35.804L32.906 35.8731L32.5894 35.9629L32.2728 36.0525L31.9634 36.1629L31.6056 36.2674L31.2963 36.3778L30.9796 36.4674L30.6424 36.5646L30.3331 36.6749L30.0297 36.7367L29.6852 36.8131L29.3744 36.8543L29.0637 36.8954L28.7382 36.8953L28.426 36.8673L28.1064 36.8186L27.9327 36.7876L27.7722 36.7287L27.5911 36.6771L27.4173 36.6461L27.2494 36.5665L27.0743 36.4664L26.9064 36.3868L26.7518 36.2792Z"
          fill="#FEFEFE"/>
    <path fill-rule="evenodd" clip-rule="evenodd"
          d="M27.8393 33.3343L28.2428 33.0973L28.667 32.853L29.0985 32.6293L29.5433 32.3776L29.9469 32.1406L30.3711 31.8963L30.8233 31.6652L31.2548 31.4414L31.6937 31.2384L32.1533 31.0279L32.5922 30.8248L33.0664 30.6556L33.5407 30.4864L34.0428 30.3304L34.5318 30.2025L35.0413 30.0671L35.1223 30.294L35.1413 30.5429L35.1251 30.7578L35.0676 30.9875L34.9821 31.204L34.876 31.4278L34.7699 31.6516L34.6359 31.8622L34.2161 31.9887L33.7684 32.1019L33.3413 32.2078L32.9216 32.3344L32.4813 32.4683L32.0335 32.5815L31.6212 32.7287L31.194 32.8346L30.7536 32.9684L30.334 33.095L29.9142 33.2214L29.5018 33.3686L29.0614 33.5025L28.6491 33.6496L28.2088 33.7835L27.7964 33.9307L27.8393 33.3343Z"
          fill="#CFD0D0"/>
    <path fill-rule="evenodd" clip-rule="evenodd"
          d="M26.3334 31.8496L26.4453 31.5772L26.5514 31.3533L26.7061 31.1354L26.8682 30.9381L27.0449 30.7821L27.2703 30.6319L27.4618 30.5171L27.6738 30.395L27.914 30.2861L28.154 30.1772L28.4014 30.0889L28.6208 29.9873L28.8683 29.899L29.1083 29.7902L29.3205 29.668L29.5399 29.5664L29.8964 29.3928L30.2601 29.2397L30.6312 29.1073L31.023 28.9675L31.4015 28.8557L31.8006 28.7365L32.1792 28.6247L32.5782 28.5055L32.9847 28.407L33.3706 28.3158L33.7697 28.1966L34.1629 28.1261L34.59 28.0202L34.9553 27.9363L35.3617 27.8377L35.7476 27.7466L35.8182 27.8144L35.7917 27.8703L35.7932 27.9395L35.7814 28.0367L35.5029 28.6242L33.846 29.1921L28.9812 31.3231L28.6308 31.4482L28.3023 31.6351L28.0018 31.8353L27.694 32.0149L27.3788 32.1739L27.0342 32.2503L26.6807 32.237L26.3318 32.1058L26.3334 31.8496Z"
          fill="#CFD0D0"/>
    <path fill-rule="evenodd" clip-rule="evenodd"
          d="M27.8938 28.9916L28.4181 28.572L28.9293 28.1805L29.489 27.7948L30.0354 27.4371L30.5951 27.0514L31.1769 26.7276L31.7513 26.3832L32.3331 26.0594L32.9222 25.7562L33.532 25.4457L34.1285 25.1631L34.7323 24.9011L35.3495 24.6112L35.9813 24.3625L36.6058 24.0932L37.2583 23.8371L37.3481 23.8284L37.4246 23.8475L37.5145 23.8387L37.6043 23.8299L37.6809 23.8491L37.7648 23.8888L37.8414 23.908L37.912 23.9758L38.0004 24.2232L38.0327 24.4441L38.0311 24.7003L37.9943 24.9227L37.9161 25.1597L37.81 25.3836L37.704 25.6074L37.5772 25.8386L36.9041 26.4274L36.3179 26.5436L35.7392 26.6803L35.153 26.7965L34.5742 26.9333L34.0028 27.0907L33.4446 27.2201L32.8599 27.4056L32.2885 27.5629L31.6964 27.7277L31.1604 27.919L30.5756 28.1044L30.0396 28.2956L29.4622 28.5017L28.9129 28.7209L28.3974 28.9048L27.8481 29.1241L27.7862 29.1462L27.8938 28.9916Z"
          fill="#FEFEFE"/>
    <path fill-rule="evenodd" clip-rule="evenodd"
          d="M26.6544 26.0401L26.6383 25.9296L26.6427 25.8118L26.6678 25.6866L26.7209 25.5747L26.7812 25.4835L26.8623 25.3848L26.9153 25.2729L26.9831 25.2022L30.2203 24.0471L35.5885 22.4803L35.7122 22.4362L35.8374 22.4613L35.9493 22.5143L36.0464 22.5262L36.0449 22.7824L36.008 23.0047L35.9431 23.2138L35.837 23.4376L35.3731 23.7659L34.9607 23.913L34.5203 24.0469L34.0874 24.2014L33.6543 24.3559L33.242 24.5031L32.8222 24.6296L32.3892 24.7841L31.9563 24.9386L31.5512 25.1063L31.1182 25.2609L30.7132 25.4286L30.2875 25.6037L29.8825 25.7715L29.4775 25.9393L29.0593 26.135L28.6616 26.3234L28.3862 26.3984L28.1034 26.4528L27.8413 26.4998L27.5364 26.4924L27.3009 26.4835L27.0564 26.3848L26.8459 26.2507L26.6544 26.0401Z"
          fill="#CFD0D0"/>
    <path fill-rule="evenodd" clip-rule="evenodd"
          d="M28.5024 22.6845L29.0915 22.3814L29.6468 22.1135L30.23 21.8589L30.8059 21.5837L31.4098 21.3217L32.0004 21.0878L32.5704 20.8611L33.1816 20.6198L33.8001 20.399L34.3981 20.1857L34.996 19.9724L35.6146 19.7516L36.2405 19.5515L36.8665 19.3514L37.485 19.1308L38.1109 18.9307L38.5306 19.1295L38.6336 19.4182L38.632 19.6745L38.5819 19.9248L38.4346 20.1634L38.2592 20.3886L38.0839 20.6138L37.9013 20.8185L37.7186 21.0232L34.0618 21.9793L28.318 23.7963L28.3077 23.6372L28.3254 23.4915L28.3299 23.3737L28.3476 23.2279L28.3727 23.1028L28.4183 22.9702L28.4567 22.8171L28.5024 22.6845Z"
          fill="#FEFEFE"/>
    <path fill-rule="evenodd" clip-rule="evenodd"
          d="M27.1005 20.9066L27.6175 20.4664L28.1036 20.2L28.6044 19.9748L29.1184 19.7217L29.6192 19.4965L30.1405 19.2639L30.6693 19.0521L31.1907 18.8196L31.7061 18.6357L32.2216 18.4517L32.7503 18.2398L33.3144 18.0618L33.8505 17.8704L34.3939 17.6998L34.958 17.5218L35.5294 17.3644L36.0803 17.2144L36.1774 17.2261L36.2673 17.2174L36.3718 17.2498L36.4616 17.2409L36.5662 17.2734L36.6575 17.3338L36.7075 17.4089L36.7443 17.512L36.7413 17.699L36.725 17.914L36.6602 18.1231L36.5954 18.3322L35.9973 18.5456L35.3994 18.7589L34.7735 18.959L34.1682 19.1517L33.5629 19.3445L32.9576 19.5372L32.3596 19.7506L31.7823 19.9566L31.1844 20.17L30.5996 20.3553L30.0017 20.5687L29.3905 20.81L28.8132 21.016L28.2152 21.2294L27.6452 21.456L27.0826 21.7032L26.9678 21.5118L26.9635 21.3042L27.0356 21.1156L27.1005 20.9066Z"
          fill="#CFD0D0"/>
    <path fill-rule="evenodd" clip-rule="evenodd"
          d="M23.9712 11.3541L23.8977 10.8225L23.7963 10.2776L23.7508 9.75928L23.7053 9.24091L23.673 8.69448L23.6348 8.19673L23.6306 7.66366L23.647 7.12317L23.99 7.30292L24.3463 7.45471L24.6895 7.63455L25.0384 7.76571L25.3947 7.9175L25.757 8.0206L26.1266 8.14442L26.4815 8.227L26.5404 8.39197L26.4887 8.89857L26.4649 9.41836L26.4339 9.91761L26.4027 10.4168L26.3791 10.9367L26.3479 11.4358L26.3243 11.9557L26.2446 12.449L25.9796 12.3576L25.6865 12.253L25.4141 12.1409L25.1064 11.9951L24.8473 11.8552L24.5322 11.6886L24.2451 11.5354L23.9712 11.3541Z"
          fill="#CFD0D0"/>
    <path fill-rule="evenodd" clip-rule="evenodd"
          d="M28.443 13.2685L28.6005 13.189L28.7861 13.1228L28.9511 13.0639L29.1293 12.9771L29.3016 12.9389L29.4665 12.88L29.6315 12.8212L29.7965 12.7623L29.9894 12.7167L30.1543 12.6579L30.3266 12.6196L30.5122 12.5533L30.6772 12.4945L30.8628 12.4283L31.035 12.3901L31.2206 12.3239L31.225 12.5315L31.2294 12.7391L31.2204 12.9748L31.1835 13.1971L31.1747 13.4327L31.1657 13.6683L31.1569 13.904L31.1686 14.1323L30.8063 14.0291L30.472 13.9392L30.1172 13.8566L29.783 13.7667L29.4619 13.6487L29.1203 13.5381L28.7713 13.407L28.443 13.2685Z"
          fill="#9D9E9E"/>
    <path fill-rule="evenodd" clip-rule="evenodd"
          d="M28.0586 8.15237L28.0219 8.04926L28.0484 7.99332L28.0749 7.93739L28.1707 7.87995L28.5712 7.83003L29.0308 7.61957L29.5036 7.38113L29.9631 7.17067L30.4359 6.93224L30.8954 6.72178L31.3549 6.51131L31.835 6.29351L32.2945 6.08304L32.782 5.88585L33.2622 5.66804L33.729 5.4782L34.2239 5.30163L34.7394 5.11772L35.2342 4.94115L35.7291 4.76459L36.2313 4.60864L36.2224 4.84424L36.1856 5.06656L36.1486 5.28898L36.1191 5.53192L36.097 5.79558L36.1013 6.00321L36.1204 6.25208L36.2013 6.47883L35.9347 6.64372L35.6682 6.8086L35.3941 6.95277L35.0996 7.10438L34.8257 7.24865L34.5311 7.40025L34.2498 7.5239L33.9478 7.65488L33.6739 7.79906L33.372 7.93004L33.07 8.06103L32.7961 8.20529L32.4941 8.33628L32.2129 8.45983L31.9463 8.62472L31.6649 8.74835L31.6428 9.01192L31.6132 9.25496L31.5631 9.50524L31.5542 9.74085L31.5115 10.0118L31.4819 10.2548L31.4318 10.5052L31.4302 10.7614L31.1681 10.8084L30.9339 10.8687L30.6792 10.9364L30.4523 11.0173L30.2049 11.1056L29.9781 11.1866L29.7513 11.2675L29.5038 11.3558L29.2844 11.4573L29.0649 11.5588L28.8529 11.681L28.626 11.7619L28.4065 11.8635L28.1945 11.9857L27.975 12.0872L27.7556 12.1888L27.7587 11.6763L27.7691 11.1844L27.8208 10.6778L27.8519 10.1787L27.9036 9.67208L27.9553 9.16548L27.9863 8.66631L28.0586 8.15237Z"
          fill="#9D9E9E"/>
    <path fill-rule="evenodd" clip-rule="evenodd"
          d="M33.8751 10.4469L34.1681 10.5516L34.4405 10.6636L34.7261 10.7476L35.0118 10.8316L35.3108 10.8877L35.5817 10.9304L35.8807 10.9865L36.1928 11.0146L36.477 11.0294L36.7892 11.0574L37.0941 11.0649L37.3915 11.0518L37.6757 11.0666L37.988 11.0946L38.2928 11.1021L38.5976 11.1095L38.9996 11.1288L39.3943 11.1275L39.7889 11.126L40.2042 11.1174L40.6121 11.088L41.0127 11.0381L41.4133 10.9881L41.8551 10.9235L42.2483 10.8529L42.6548 10.7543L43.0613 10.6558L43.4883 10.5499L43.8801 10.4101L44.2792 10.2909L44.6637 10.1305L45.0348 9.99805L44.8918 10.4443L44.7355 10.9184L44.5793 11.3925L44.4231 11.8666L44.2109 12.3143L44.0547 12.7884L43.8705 13.2493L43.6656 13.7175L43.218 13.8308L42.7569 13.9721L42.3225 14.0573L41.86 14.1294L41.405 14.222L40.9559 14.2661L40.5067 14.3101L40.0855 14.3674L39.6083 14.3982L39.1591 14.4422L38.7232 14.4583L38.2667 14.4818L37.8102 14.5051L37.3817 14.5419L36.9325 14.5859L36.4759 14.6093L36.2889 14.6064L36.1093 14.624L35.8943 14.6077L35.7146 14.6253L35.5276 14.6223L35.32 14.6267L35.1255 14.603L34.9385 14.6001L34.7589 14.6177L34.5645 14.5941L34.3702 14.5705L34.1831 14.5675L33.9887 14.5438L33.8017 14.5408L33.6279 14.5098L33.4336 14.4862L33.8751 10.4469Z"
          fill="#CFD0D0"/>
    <path fill-rule="evenodd" clip-rule="evenodd"
          d="M23.9009 5.03355L24.0011 4.8584L24.116 4.7244L24.2515 4.58306L24.3811 4.49031L24.5593 4.40348L24.7243 4.34463L24.8892 4.28577L25.0748 4.21957L25.5829 4.01504L26.0778 3.83847L26.5668 3.71049L27.0763 3.57517L27.5667 3.5164L28.0777 3.4502L28.6034 3.42533L29.0806 3.39453L29.5931 3.39763L30.1055 3.40073L30.6181 3.40383L31.1172 3.43489L31.6091 3.44542L32.1289 3.46905L32.6208 3.47958L33.1126 3.49003L33.3968 3.50481L33.7017 3.51224L34.0065 3.51968L34.2907 3.53455L34.5897 3.59057L34.9019 3.61863L35.1875 3.70262L35.4731 3.7867L35.0196 3.94857L34.5527 4.13841L34.0991 4.3002L33.6528 4.4827L33.1786 4.65192L32.7117 4.84176L32.258 5.00363L31.7912 5.19348L31.3376 5.35526L30.8914 5.53776L30.4244 5.7276L29.9855 5.93072L29.5393 6.11322L29.1077 6.33687L28.6688 6.53998L28.2373 6.76373L28.015 6.72682L27.7719 6.69735L27.5143 6.62654L27.3125 6.58229L27.0828 6.52485L26.8531 6.46732L26.6028 6.41714L26.373 6.3597L26.1566 6.27421L25.9195 6.19606L25.6824 6.118L25.4454 6.03985L25.2083 5.9617L24.9918 5.87629L24.7475 5.77752L24.531 5.69202L24.3204 5.55794L24.1305 5.41651L24.0024 5.25304L23.9009 5.03355Z"
          fill="#FEFEFE"/>
    <path fill-rule="evenodd" clip-rule="evenodd"
          d="M40.6842 5.94861L41.8917 6.07561L42.8444 6.27032L43.5822 6.44875L44.1197 6.65204L44.4774 6.87304L44.6835 7.12492L44.7232 7.36645L44.6657 7.59621L44.4978 7.84207L44.2606 8.08944L43.9674 8.31026L43.639 8.49719L43.3032 8.66349L42.9601 8.80916L42.6714 8.91218L42.4166 8.9798L41.9335 9.05919L41.4431 9.11795L40.96 9.19734L40.4903 9.24877L39.9999 9.30753L39.5095 9.3663L39.0397 9.41772L38.5419 9.45587L38.0648 9.48658L37.5877 9.51738L37.1238 9.52021L36.6525 9.50242L36.1813 9.48463L35.7027 9.44613L35.2448 9.40037L34.7927 9.30603L35.099 9.05724L35.4613 8.83492L35.7884 8.57878L36.1434 8.33593L36.5057 8.11369L36.8401 7.87819L37.2024 7.65586L37.5927 7.4469L37.9418 7.25263L38.3321 7.04358L38.6944 6.82135L39.0788 6.66089L39.4897 6.44458L39.8741 6.28413L40.2586 6.12375L40.6842 5.94861Z"
          fill="#FEFEFE"/>
    <path fill-rule="evenodd" clip-rule="evenodd"
          d="M43.485 11.3878L42.947 13.1371L35.2332 13.7975L35.323 13.7888L35.5852 13.7417L35.9504 13.6579L36.4394 13.5299L37.0329 13.4343L37.6941 13.2681L38.404 13.1078L39.1477 12.9121L39.8915 12.7165L40.6146 12.5282L41.3097 12.3267L41.9563 12.1192L42.513 11.9206L42.9592 11.7381L43.3083 11.5439L43.485 11.3878Z"
          fill="#9D9E9E"/>
    <path fill-rule="evenodd" clip-rule="evenodd"
          d="M63.193 42.4008H53.3473V36.5396H54.6007L51.2088 31.095L49.6351 32.4673V36.5396H51.5103V42.4008H42.1215C41.7226 42.3974 41.5167 42.1328 41.5041 41.8103V36.5396H43.5437V22.5305H41.5041V17.4566C41.4911 17.0326 41.7083 16.689 42.3326 16.6694H50.6514H51.5103V22.5305H49.6351V25.8239L53.3732 22.5305H53.3473V16.6694H62.5175C63.0042 16.6738 63.2746 16.8679 63.2878 17.4142V22.5305H60.9405L55.5646 27.2623L61.3522 36.5396H63.847V41.7257C63.8439 42.1204 63.6779 42.4041 63.193 42.4008Z"
          fill="#FEFEFE"/>
    <path d="M62.8245 41.3783H54.3697V37.5621H56.4423L51.4418 29.5351L48.6126 32.0024V37.5621H50.4878V41.3783H42.5266V37.5621H44.5661V21.5079H42.5266V17.6919H50.4878V21.5079H48.6126V28.0876L56.0804 21.5079H54.3697V17.6919H62.2653V21.5079H60.5545L54.2381 27.0677L60.7849 37.5621H62.8245V41.3783Z"
          fill="#212121"/>
    <path fill-rule="evenodd" clip-rule="evenodd"
          d="M22.4032 42.4008H12.8538V36.5396H15.1237V31.8405H10.0298V36.5396H12.2997V42.4008H2.76088C2.2526 42.3959 1.88725 42.1309 1.89876 41.4238V36.5396H3.93835V22.5305H1.89876V17.5896C1.88336 17.0663 2.18162 16.6944 2.89107 16.6694H12.2997V22.5305H10.0298V26.5388H15.1237V22.5305H12.8538V16.6694H22.0321C22.8428 16.6678 23.2505 17.2451 23.2548 17.8526V22.5305H21.2152V36.5396H23.2548V41.4526C23.2582 42.0487 23.0019 42.3875 22.4032 42.4008Z"
          fill="#FEFEFE"/>
    <path d="M22.2325 41.3783H13.8765V37.5621H16.1464V30.818H9.00747V37.5621H11.2774V41.3783H2.92145V37.5621H4.96104V21.5079H2.92145V17.6919H11.2774V21.5079H9.00747V27.5612H16.1464V21.5079H13.8765V17.6919H22.2325V21.5079H20.1929V37.5621H22.2325V41.3783Z"
          fill="#212121"/>
</svg>
