<svg width="68" height="88" viewBox="0 0 68 88" fill="none" xmlns="http://www.w3.org/2000/svg">
    <path d="M68 34C68 52.7777 34 88 34 88C34 88 0 52.7777 0 34C0 15.2223 15.2223 0 34 0C52.7777 0 68 15.2223 68 34Z"
          fill="#283F8C"/>
    <circle cx="34" cy="34" r="28" fill="white" stroke="#F87517" stroke-width="2"/>
    <path fill-rule="evenodd" clip-rule="evenodd"
          d="M53.5019 31.4437L51.0593 33.5937L54.0058 38.317H56.2541V43.6207C56.256 44.2443 55.9138 44.8118 55.1796 44.8185H34.2274L32.3972 47.1315C32.1903 47.3834 31.6274 47.3757 31.4465 47.0558L30.0756 44.8185H13.1009C12.3764 44.7933 12.0032 44.486 12 43.7343V38.317H13.3729V31.4437H12V26.1014C11.9998 25.4304 12.5823 24.9712 13.2448 24.9422H26.9026C26.3298 24.2954 26.0504 24.063 25.6442 23.2736C25.3272 22.6192 24.9611 20.5882 25.0901 18.994C25.1648 18.0687 25.159 17.1114 25.5833 16.4443C25.9132 15.9255 26.5727 15.6166 27.2874 15.4122C31.1688 14.3527 43.7372 15.2103 45.9749 19.4574C46.1549 21.3057 45.1287 23.2376 44.4631 24.9422H54.7301C55.3341 24.942 55.8785 25.4877 55.8777 26.0931V31.4437H53.5019Z"
          fill="#F87517"/>
    <path fill-rule="evenodd" clip-rule="evenodd"
          d="M29.5802 40.855L29.3978 40.8262L29.2194 40.7647L29.036 40.6893L28.8666 40.609L28.6961 40.482L28.5584 40.3591L28.4434 40.2123L28.3423 40.0607L28.3354 39.9536L28.3563 39.8366L28.3821 39.7335L28.4356 39.6206L28.4803 39.5264L28.5388 39.4273L28.6112 39.3233L28.6697 39.2241L28.7788 39.0913L28.8641 38.9357L28.9682 38.7891L29.0585 38.6473L29.1625 38.5007L29.2627 38.3867L29.3767 38.2678L29.5146 38.1716L29.4274 37.796L29.2916 37.7662L29.142 37.7413L29.0012 37.6977L28.8655 37.668L28.7197 37.6104L28.5968 37.5291L28.4968 37.424L28.4106 37.3139L28.4235 37.0433L28.4781 36.7579L28.5516 36.4813L28.6716 36.2038L28.8015 35.954L28.9691 35.7222L29.1743 35.5081L29.3945 35.3357L29.3984 35.303L29.3252 34.9223L29.2847 34.5457L29.249 34.1829L29.1947 33.8111L29.0311 33.7912L28.8626 33.7575L28.6941 33.7237L28.5484 33.6662L28.3977 33.5948L28.2421 33.5095L28.1232 33.3955L28.0271 33.2576L28.0272 33.0386L28.0649 32.8374L28.1354 32.6402L28.2336 32.433L28.3743 32.2576L28.5013 32.0871L28.6609 31.9206L28.7928 31.7641L29.4362 31.3311L29.4274 31.1309L29.4086 30.9029L29.3948 30.6888L29.3671 30.4796L29.2274 30.4825L29.0777 30.4577L28.932 30.4002L28.8002 30.3377L28.6911 30.2514L28.5772 30.1513L28.4959 30.0551L28.4048 29.9312L28.4019 29.7914L28.4316 29.6556L28.4802 29.5288L28.5288 29.4019L28.6151 29.2929L28.6964 29.17L28.7966 29.056L28.8878 28.9609L28.9839 28.8796L29.0802 28.7984L29.1763 28.7172L29.2913 28.6448L29.3875 28.5636L29.4836 28.4823L29.5799 28.4011L29.6899 28.3149L29.791 28.2475L29.8872 28.1662L30.0022 28.0939L30.1033 28.0265L30.2134 27.9403L30.3195 27.8868L30.4344 27.8145L30.5495 27.7421L30.5674 27.4854L30.5664 27.2198L30.5794 26.9491L30.5785 26.6835L30.5776 26.4179L30.5718 26.1383L30.5569 25.8776L30.5372 25.603L29.5481 25.1111L28.0744 23.9628L27.903 23.7893L27.7504 23.6247L27.579 23.4512L27.4313 23.3005L27.2738 23.122L27.1489 22.9475L27.0003 22.7502L26.9121 22.547L26.7964 21.9155L26.6944 21.2791L26.6113 20.6517L26.561 20.0282L26.5056 19.3907L26.5068 18.7802L26.5357 18.1597L26.5885 17.562L26.8591 17.3558L27.1536 17.1725L27.4857 17.0071L27.8465 16.8784L28.2124 16.7635L28.6297 16.6615L29.043 16.5922L29.4703 16.518L29.9074 16.4715L30.3822 16.4429L30.862 16.4282L31.3279 16.4185L31.8175 16.4314L32.3072 16.4445L32.783 16.4625L33.2637 16.4944L33.7306 16.5312L34.1886 16.5868L34.6227 16.6196L35.0529 16.6852L35.4593 16.7279L35.8429 16.7944L36.2165 16.8332L36.5535 16.9007L36.8668 16.9454L37.1384 17.005L37.3723 17.0467L37.5874 17.0794L37.742 17.1181L37.8778 17.1479L37.9432 17.1559L37.962 17.1648L37.9283 17.3333L37.8856 17.5206L37.8519 17.6892L37.8042 17.8626L37.7616 18.0499L37.7278 18.2184L37.7129 18.3958L37.7168 18.5822L37.8923 18.5039L38.0628 18.4118L38.2244 18.3385L38.3899 18.2325L38.5466 18.1453L38.7122 18.0393L38.8827 17.9472L39.0532 17.855L39.2812 17.8362L39.4953 17.8224L39.7193 17.8364L39.9483 17.8642L40.1634 17.8969L40.3834 17.9436L40.5896 17.9952L40.8096 18.0419L41.0208 18.1074L41.2458 18.1679L41.4568 18.2334L41.6818 18.2939L41.888 18.3455L42.113 18.4061L42.3241 18.4715L42.5442 18.5182L42.8355 18.6333L43.1408 18.7434L43.4421 18.8862L43.7385 19.0151L44.0219 19.1956L44.2637 19.391L44.4738 19.6289L44.6194 19.9055L44.6362 20.0403L44.6034 20.2554L44.5211 20.5508L44.4308 20.9116L44.2949 21.3199L44.1599 21.7749L43.9833 22.2446L43.8068 22.7144L43.6262 23.2169L43.4585 23.6679L43.3048 24.1139L43.1362 24.5183L42.9993 24.8801L42.8842 25.1715L42.7999 25.3737L42.7513 25.5005L42.7612 25.5283L42.78 25.5372L42.7899 25.565L42.786 25.5977L42.554 25.6491L42.3359 25.6957L42.1039 25.7471L41.8581 25.8036L41.6311 25.869L41.3991 25.9204L41.1532 25.9768L40.9074 26.0333L40.6616 26.0897L40.4296 26.1412L40.1838 26.1976L39.9468 26.2352L39.7199 26.3006L39.4829 26.3382L39.251 26.3896L39.014 26.4272L38.9833 26.5165L38.9614 26.5868L38.9446 26.6711L38.9138 26.7603L38.897 26.8445L38.8662 26.9337L38.8493 27.0179L38.8186 27.1072L39.0307 27.2192L39.215 27.3412L39.3815 27.5008L39.5341 27.6654L39.65 27.8588L39.7381 28.062L39.7896 28.2939L39.8084 28.522L39.7994 28.7599L39.7339 28.971L39.612 29.1553L39.4711 29.3307L39.3065 29.4833L39.1231 29.627L38.9347 29.7568L38.7553 29.8677L38.6789 30.0045L38.6353 30.1453L38.5827 30.3048L38.5856 30.4446L38.7224 30.521L38.8413 30.635L38.9414 30.7401L39.0326 30.864L39.1237 30.988L39.1872 31.1218L39.2465 31.2883L39.2822 31.4321L39.3198 31.669L39.3198 31.888L39.2869 32.1032L39.2076 32.3192L39.1094 32.5264L38.9785 32.7295L38.8377 32.905L38.678 33.0714L38.5958 33.1477L38.4946 33.2151L38.3985 33.2964L38.2974 33.3637L38.2012 33.445L38.0951 33.4985L38.0078 33.5609L37.9017 33.6144L37.7659 34.0227L38.0077 34.2181L38.1671 34.4897L38.2483 34.805L38.2968 35.1163L38.2789 35.373L38.2382 35.6535L38.1648 35.93L38.0725 36.1976L37.9614 36.4563L37.8077 36.6833L37.6114 36.8785L37.3724 37.042L36.3662 37.5105L36.3413 37.6602L36.4137 37.7752L36.5049 37.8992L36.5494 38.024L36.6207 38.3115L36.6504 38.6139L36.6424 38.8983L36.6016 39.1788L36.4955 39.4514L36.3655 39.7012L36.1841 39.938L35.9739 40.1382L35.8777 40.2194L35.7865 40.3146L35.6854 40.3819L35.5704 40.4542L35.4742 40.5355L35.3542 40.5939L35.2482 40.6474L35.1282 40.7059L34.9893 40.9745L34.8138 41.2718L34.6254 41.6207L34.423 41.9745L34.2217 42.3749L34.0016 42.7664L33.7814 43.1579L33.5612 43.5493L33.3411 43.9408L33.1298 44.3135L32.9364 44.6484L32.7609 44.9458L32.5982 45.1916L32.4584 45.4135L32.3355 45.5513L32.2393 45.6325L32.1006 45.463L31.8301 45.0119L31.4387 44.3536L31.0078 43.5843L30.5619 42.7733L30.1448 41.999L29.8001 41.3397L29.5802 40.855Z"
          fill="#C7C1E1"/>
    <path fill-rule="evenodd" clip-rule="evenodd"
          d="M29.4958 40.838L29.3224 40.7904L29.1351 40.7477L28.9517 40.6723L28.7961 40.587L28.6257 40.4601L28.474 40.3421L28.3591 40.1954L28.2719 40.0387L28.2511 39.9366L28.272 39.8196L28.2978 39.7166L28.3513 39.6036L28.4098 39.5045L28.4495 39.3964L28.5269 39.3062L28.5854 39.2072L28.6895 39.0605L28.7798 38.9188L28.8838 38.7721L28.9741 38.6304L29.0782 38.4837L29.1734 38.3559L29.2924 38.2508L29.4302 38.1547L29.3431 37.779L29.2073 37.7492L29.0576 37.7244L28.9169 37.6807L28.7811 37.6509L28.6354 37.5934L28.5125 37.5121L28.4124 37.407L28.3352 37.2781L28.3392 37.0264L28.3938 36.7409L28.4622 36.4505L28.5872 36.1869L28.7172 35.9371L28.8847 35.7051L29.09 35.4911L29.3051 35.3048L29.3141 35.286L29.2409 34.9053L29.2003 34.5286L29.1786 34.1609L29.1103 33.7941L28.9467 33.7743L28.7783 33.7405L28.6236 33.7018L28.4641 33.6492L28.2995 33.5827L28.1578 33.4925L28.0389 33.3785L27.9428 33.2407L27.929 33.0266L27.9806 32.8204L28.0461 32.6093L28.1631 32.4111L28.29 32.2406L28.4308 32.0652L28.5766 31.9037L28.7085 31.7471L29.3519 31.3141L29.343 31.1139L29.3243 30.8859L29.3104 30.6718L29.2966 30.4577L29.143 30.4656L28.9933 30.4407L28.8476 30.3832L28.7297 30.3157L28.6118 30.2483L28.4929 30.1343L28.4067 30.0243L28.3205 29.9142L28.3314 29.7695L28.3473 29.6386L28.3771 29.5028L28.4584 29.38L28.5258 29.262L28.6121 29.153L28.6983 29.044L28.7896 28.9488L28.8857 28.8676L28.9958 28.7814L29.092 28.7001L29.1931 28.6327L29.2843 28.5376L29.3993 28.4653L29.4955 28.384L29.5917 28.3028L29.7067 28.2304L29.8029 28.1492L29.904 28.0819L30.019 28.0095L30.1152 27.9282L30.2302 27.8559L30.3362 27.8024L30.4513 27.7301L30.4642 27.4595L30.4772 27.1889L30.4902 26.9183L30.4892 26.6527L30.4933 26.4009L30.4874 26.1213L30.4726 25.8606L30.4529 25.5861L29.4776 25.0892L27.9901 23.9458L27.8326 23.7674L27.666 23.6078L27.5085 23.4293L27.342 23.2696L27.2033 23.1001L27.0597 22.9166L26.9298 22.7283L26.8278 22.53L26.712 21.8985L26.6101 21.2621L26.5221 20.6208L26.4717 19.9973L26.4213 19.3738L26.4225 18.7631L26.4514 18.1427L26.518 17.54L26.7698 17.325L27.0692 17.1556L27.4014 16.9901L27.7573 16.8475L28.128 16.7465L28.5404 16.6307L28.9538 16.5614L29.3859 16.501L29.837 16.4496L30.2979 16.426L30.7777 16.4113L31.2574 16.3965L31.7332 16.4145L32.2229 16.4275L32.6987 16.4455L33.1794 16.4773L33.6463 16.5141L34.0993 16.5559L34.5384 16.6027L34.9686 16.6682L35.375 16.7109L35.7725 16.7725L36.1322 16.8162L36.4692 16.8837L36.7825 16.9284L37.0541 16.988L37.3018 17.0247L37.5031 17.0625L37.6577 17.1012L37.7935 17.1309L37.8589 17.1389L37.8777 17.1478L37.8439 17.3163L37.8013 17.5037L37.7626 17.6582L37.7199 17.8456L37.6722 18.019L37.6574 18.1965L37.6286 18.3788L37.6275 18.5513L37.808 18.487L37.9785 18.3948L38.1351 18.3077L38.3056 18.2155L38.4761 18.1233L38.6417 18.0174L38.7984 17.9301L38.9639 17.8242L39.178 17.8103L39.411 17.8054L39.6211 17.8243L39.8451 17.8383L40.0791 17.88L40.2991 17.9266L40.5191 17.9733L40.7253 18.0249L40.9503 18.0854L41.1614 18.1509L41.3814 18.1976L41.5926 18.263L41.8176 18.3236L42.0287 18.389L42.2537 18.4496L42.4737 18.4963L42.7512 18.6162L43.0565 18.7264L43.3578 18.8692L43.6541 18.9982L43.9376 19.1786L44.1744 19.3601L44.3895 19.6119L44.5351 19.8885L44.5469 20.0095L44.5191 20.2384L44.4368 20.5338L44.3465 20.8946L44.2105 21.3029L44.0706 21.744L43.8941 22.2138L43.7224 22.6975L43.5508 23.1812L43.3742 23.6509L43.2155 24.0831L43.0518 24.5014L42.91 24.8492L42.8088 25.1357L42.7155 25.3567L42.667 25.4835L42.6719 25.4974L42.6957 25.5202L42.7056 25.548L42.6966 25.5668L42.4697 25.6322L42.2377 25.6836L42.0057 25.7351L41.7737 25.7866L41.5418 25.8381L41.3009 25.9084L41.064 25.946L40.8231 26.0163L40.5912 26.0678L40.3453 26.1242L40.1084 26.1618L39.8675 26.2321L39.6167 26.2747L39.3847 26.3261L39.1666 26.3727L38.9248 26.3964L38.9129 26.4945L38.8821 26.5837L38.8464 26.659L38.8295 26.7433L38.8077 26.8137L38.7819 26.9167L38.765 27.001L38.7343 27.0902L38.9463 27.2023L39.1307 27.3242L39.2972 27.4839L39.4497 27.6485L39.5518 27.8467L39.6399 28.05L39.6865 28.268L39.7102 28.5099L39.7151 28.7429L39.6496 28.954L39.5277 29.1383L39.4007 29.3088L39.2222 29.4664L39.0388 29.61L38.8504 29.7398L38.671 29.8508L38.5946 29.9876L38.551 30.1283L38.4984 30.2879L38.5013 30.4276L38.6381 30.504L38.757 30.618L38.8571 30.7231L38.9621 30.8421L39.0394 30.971L39.1028 31.1048L39.1622 31.2714L39.1979 31.4151L39.2444 31.6332L39.2354 31.8711L39.2026 32.0862L39.1233 32.3023L39.0251 32.5094L38.908 32.7076L38.7534 32.8879L38.5888 33.0406L38.5115 33.1308L38.4103 33.1981L38.3231 33.2606L38.2269 33.3418L38.1119 33.4141L38.0107 33.4815L37.9235 33.5439L37.8174 33.5974L37.6815 34.0058L37.9233 34.2011L38.0779 34.4589L38.164 34.788L38.1986 35.1042L38.1807 35.3609L38.135 35.6276L38.0804 35.9131L37.9882 36.1807L37.8721 36.4254L37.7095 36.6712L37.5132 36.8665L37.2881 37.025L36.2819 37.4935L36.257 37.6432L36.3294 37.7582L36.4017 37.8732L36.4651 38.0071L36.5364 38.2946L36.5799 38.5919L36.558 38.8813L36.5124 39.148L36.4111 39.4344L36.2673 39.6891L36.0998 39.921L35.8896 40.1212L35.7795 40.2074L35.6833 40.2886L35.5872 40.3699L35.486 40.4373L35.3899 40.5185L35.2699 40.577L35.1638 40.6305L35.0439 40.6889L34.905 40.9575L34.7295 41.2549L34.541 41.6037L34.3387 41.9575L34.1324 42.344L33.9172 42.7494L33.6971 43.1409L33.4769 43.5323L33.2567 43.9238L33.0593 44.2915L32.8521 44.6315L32.6766 44.9288L32.5139 45.1745L32.3691 45.3827L32.2512 45.5343L32.1549 45.6156L32.0301 45.4411L31.7457 44.9949L31.3683 44.3317L30.9234 43.5673L30.4776 42.7563L30.0556 41.9682L29.7108 41.3089L29.4958 40.838Z"
          fill="#212121"/>
    <path fill-rule="evenodd" clip-rule="evenodd"
          d="M31.2434 41.482L31.3633 41.4236L31.4882 41.3789L31.6082 41.3205L31.7469 41.271L31.8719 41.2264L32.0107 41.1769L32.1217 41.1373L32.2655 41.1016L32.4042 41.0521L32.5341 41.0214L32.659 40.9769L32.7978 40.9273L32.9415 40.8917L33.0664 40.8471L33.1963 40.8164L33.3401 40.7808L33.2736 40.9453L33.1933 41.1148L33.1218 41.2654L33.0365 41.4211L32.9562 41.5905L32.8759 41.76L32.7906 41.9156L32.7102 42.0851L32.6249 42.2407L32.5307 42.4151L32.4454 42.5707L32.379 42.7352L32.2986 42.9047L32.2322 43.0693L32.1518 43.2387L32.0854 43.4032L31.806 42.971L31.5999 42.4813L31.4355 41.9766L31.2434 41.482Z"
          fill="#CFD0D0"/>
    <path fill-rule="evenodd" clip-rule="evenodd"
          d="M30.0069 39.4201L30.0287 39.3497L30.0367 39.2843L30.0724 39.209L30.0803 39.1435L30.1021 39.0732L30.124 39.0028L30.1696 38.9553L30.2102 38.8938L30.4462 38.8096L30.6821 38.7254L30.9319 38.6363L31.1728 38.566L31.4226 38.4768L31.6685 38.4204L31.9233 38.3451L32.1691 38.2887L32.4149 38.2323L32.6747 38.1709L32.9255 38.1283L33.1763 38.0858L33.441 38.0383L33.6918 37.9957L33.9336 37.972L34.1894 37.9434L34.2597 37.9652L34.344 37.9821L34.4282 37.9989L34.5174 38.0297L34.6066 38.0604L34.6869 38.11L34.7672 38.1596L34.8385 38.2281L34.8177 38.345L34.778 38.453L34.7294 38.5799L34.6758 38.6928L34.6084 38.8108L34.536 38.9149L34.4448 39.01L34.3674 39.1002L34.1493 39.1467L33.9362 39.2071L33.7231 39.2675L33.5149 39.3418L33.274 39.4121L33.0658 39.4864L32.8527 39.5468L32.6257 39.6122L32.4175 39.6864L32.2133 39.728L31.9814 39.7795L31.7722 39.8072L31.563 39.8349L31.3439 39.8348L31.1338 39.8159L30.9187 39.7832L30.8017 39.7623L30.6937 39.7226L30.5718 39.6879L30.4549 39.667L30.3418 39.6135L30.224 39.5461L30.1109 39.4925L30.0069 39.4201Z"
          fill="#FEFEFE"/>
    <path fill-rule="evenodd" clip-rule="evenodd"
          d="M30.7389 37.4374L31.0105 37.2779L31.296 37.1135L31.5865 36.9629L31.8859 36.7934L32.1576 36.634L32.4431 36.4695L32.7475 36.3139L33.0379 36.1633L33.3334 36.0267L33.6427 35.885L33.9381 35.7483L34.2573 35.6344L34.5765 35.5205L34.9145 35.4155L35.2437 35.3294L35.5866 35.2383L35.6412 35.391L35.654 35.5585L35.643 35.7032L35.6043 35.8578L35.5468 36.0035L35.4754 36.1542L35.4039 36.3048L35.3137 36.4465L35.0312 36.5317L34.7298 36.6079L34.4424 36.6792L34.1598 36.7644L33.8634 36.8545L33.5621 36.9307L33.2845 37.0298L32.997 37.1011L32.7006 37.1912L32.4181 37.2763L32.1355 37.3615L31.858 37.4605L31.5615 37.5507L31.284 37.6497L30.9876 37.7398L30.71 37.8389L30.7389 37.4374Z"
          fill="#CFD0D0"/>
    <path fill-rule="evenodd" clip-rule="evenodd"
          d="M29.7253 36.438L29.8006 36.2547L29.872 36.104L29.9762 35.9573L30.0853 35.8245L30.2042 35.7195L30.3559 35.6184L30.4848 35.5411L30.6275 35.4589L30.7892 35.3856L30.9507 35.3123L31.1173 35.2529L31.265 35.1845L31.4315 35.1251L31.5931 35.0518L31.7359 34.9696L31.8836 34.9012L32.1236 34.7843L32.3684 34.6813L32.6182 34.5921L32.8819 34.4981L33.1366 34.4228L33.4053 34.3426L33.6601 34.2674L33.9287 34.1871L34.2024 34.1208L34.4621 34.0594L34.7307 33.9792L34.9954 33.9317L35.2829 33.8604L35.5287 33.804L35.8023 33.7376L36.062 33.6763L36.1096 33.7219L36.0918 33.7596L36.0927 33.8061L36.0848 33.8716L35.8973 34.267L34.7821 34.6493L31.5076 36.0837L31.2717 36.1679L31.0506 36.2937L30.8483 36.4284L30.6411 36.5493L30.4289 36.6563L30.197 36.7078L29.9591 36.6988L29.7242 36.6105L29.7253 36.438Z"
          fill="#CFD0D0"/>
    <path fill-rule="evenodd" clip-rule="evenodd"
          d="M30.7755 34.5145L31.1285 34.2321L31.4725 33.9685L31.8493 33.7089L32.2171 33.4682L32.5938 33.2085L32.9854 32.9906L33.3721 32.7588L33.7637 32.5408L34.1602 32.3367L34.5707 32.1277L34.9721 31.9375L35.3786 31.7611L35.794 31.566L36.2193 31.3986L36.6396 31.2173L37.0788 31.045L37.1393 31.0391L37.1908 31.0519L37.2513 31.046L37.3118 31.0401L37.3633 31.053L37.4198 31.0798L37.4713 31.0927L37.5189 31.1383L37.5783 31.3048L37.6001 31.4535L37.599 31.626L37.5742 31.7757L37.5216 31.9352L37.4502 32.0859L37.3788 32.2365L37.2935 32.3921L36.8404 32.7885L36.4459 32.8667L36.0563 32.9587L35.6618 33.037L35.2721 33.129L34.8875 33.235L34.5118 33.3221L34.1183 33.4469L33.7336 33.5528L33.3351 33.6637L32.9743 33.7925L32.5807 33.9173L32.2199 34.046L31.8313 34.1847L31.4615 34.3323L31.1145 34.4561L30.7448 34.6037L30.7031 34.6185L30.7755 34.5145Z"
          fill="#FEFEFE"/>
    <path fill-rule="evenodd" clip-rule="evenodd"
          d="M29.9413 32.5279L29.9305 32.4535L29.9335 32.3742L29.9503 32.2899L29.9861 32.2146L30.0267 32.1532L30.0813 32.0868L30.1169 32.0115L30.1626 31.9639L32.3415 31.1864L35.9549 30.1318L36.0382 30.1021L36.1225 30.119L36.1978 30.1547L36.2632 30.1626L36.2622 30.3351L36.2373 30.4847L36.1936 30.6255L36.1222 30.7761L35.8099 30.9971L35.5324 31.0961L35.2359 31.1863L34.9445 31.2902L34.653 31.3943L34.3755 31.4933L34.0929 31.5785L33.8015 31.6825L33.5101 31.7865L33.2374 31.8994L32.946 32.0034L32.6733 32.1163L32.3868 32.2342L32.1142 32.3471L31.8416 32.46L31.56 32.5918L31.2924 32.7186L31.107 32.7691L30.9167 32.8057L30.7402 32.8374L30.535 32.8324L30.3764 32.8263L30.2119 32.7599L30.0702 32.6697L29.9413 32.5279Z"
          fill="#CFD0D0"/>
    <path fill-rule="evenodd" clip-rule="evenodd"
          d="M31.1853 30.2689L31.5818 30.0649L31.9555 29.8846L32.3481 29.7132L32.7358 29.528L33.1422 29.3516L33.5398 29.1942L33.9234 29.0416L34.3348 28.8791L34.7512 28.7306L35.1537 28.587L35.5561 28.4434L35.9725 28.2948L36.3939 28.1601L36.8152 28.0254L37.2315 27.8769L37.6528 27.7422L37.9353 27.876L38.0047 28.0704L38.0036 28.2428L37.9698 28.4114L37.8707 28.5719L37.7527 28.7235L37.6346 28.8751L37.5117 29.0129L37.3887 29.1507L34.9273 29.7942L31.0611 31.0173L31.0542 30.9102L31.0661 30.8121L31.0692 30.7328L31.0811 30.6347L31.0979 30.5505L31.1287 30.4612L31.1545 30.3582L31.1853 30.2689Z"
          fill="#FEFEFE"/>
    <path fill-rule="evenodd" clip-rule="evenodd"
          d="M30.2416 29.0722L30.5897 28.7759L30.9168 28.5966L31.2539 28.445L31.5999 28.2746L31.937 28.1231L32.2879 27.9665L32.6438 27.8239L32.9947 27.6674L33.3417 27.5436L33.6887 27.4197L34.0445 27.2771L34.4243 27.1573L34.7851 27.0285L35.1509 26.9137L35.5306 26.7939L35.9152 26.6879L36.286 26.5869L36.3514 26.5948L36.4119 26.5889L36.4822 26.6107L36.5427 26.6048L36.613 26.6266L36.6745 26.6673L36.7082 26.7179L36.733 26.7873L36.7309 26.9131L36.72 27.0578L36.6763 27.1986L36.6327 27.3393L36.2302 27.483L35.8277 27.6266L35.4064 27.7613L34.999 27.891L34.5915 28.0207L34.1841 28.1505L33.7816 28.2941L33.393 28.4327L32.9905 28.5764L32.5969 28.7011L32.1944 28.8447L31.783 29.0072L31.3944 29.1458L30.992 29.2895L30.6083 29.442L30.2296 29.6084L30.1523 29.4796L30.1494 29.3398L30.198 29.2129L30.2416 29.0722Z"
          fill="#CFD0D0"/>
    <path fill-rule="evenodd" clip-rule="evenodd"
          d="M28.1352 22.6423L28.0857 22.2845L28.0175 21.9177L27.9868 21.5688L27.9562 21.2199L27.9345 20.8521L27.9088 20.5171L27.9059 20.1582L27.917 19.7944L28.1479 19.9154L28.3877 20.0176L28.6187 20.1386L28.8536 20.2269L29.0934 20.3291L29.3372 20.3985L29.586 20.4818L29.8249 20.5374L29.8645 20.6485L29.8297 20.9895L29.8138 21.3393L29.7929 21.6754L29.7719 22.0114L29.756 22.3613L29.735 22.6973L29.7191 23.0472L29.6654 23.3793L29.4871 23.3178L29.2898 23.2474L29.1065 23.1719L28.8993 23.0738L28.7249 22.9796L28.5128 22.8675L28.3196 22.7643L28.1352 22.6423Z"
          fill="#CFD0D0"/>
    <path fill-rule="evenodd" clip-rule="evenodd"
          d="M31.1453 23.9312L31.2513 23.8777L31.3762 23.8332L31.4873 23.7936L31.6073 23.7351L31.7232 23.7094L31.8342 23.6698L31.9453 23.6302L32.0563 23.5905L32.1862 23.5599L32.2972 23.5202L32.4132 23.4945L32.5381 23.4499L32.6491 23.4103L32.7741 23.3657L32.89 23.34L33.0149 23.2954L33.0178 23.4352L33.0208 23.5749L33.0148 23.7336L32.9899 23.8832L32.984 24.0418L32.978 24.2004L32.972 24.359L32.9799 24.5127L32.736 24.4432L32.511 24.3827L32.2722 24.3271L32.0472 24.2666L31.8311 24.1872L31.6012 24.1128L31.3663 24.0245L31.1453 23.9312Z"
          fill="#9D9E9E"/>
    <path fill-rule="evenodd" clip-rule="evenodd"
          d="M30.8864 20.4874L30.8617 20.418L30.8795 20.3803L30.8974 20.3427L30.9619 20.304L31.2315 20.2704L31.5408 20.1287L31.859 19.9682L32.1683 19.8266L32.4866 19.6661L32.7959 19.5244L33.1052 19.3828L33.4284 19.2361L33.7377 19.0945L34.0658 18.9618L34.389 18.8151L34.7032 18.6874L35.0364 18.5685L35.3833 18.4447L35.7164 18.3259L36.0495 18.207L36.3875 18.1021L36.3815 18.2606L36.3567 18.4103L36.3319 18.56L36.312 18.7235L36.2971 18.901L36.3 19.0407L36.3129 19.2083L36.3673 19.3609L36.1879 19.4719L36.0085 19.5829L35.824 19.6799L35.6258 19.782L35.4414 19.8791L35.2431 19.9811L35.0538 20.0643L34.8505 20.1525L34.6661 20.2495L34.4629 20.3377L34.2597 20.4259L34.0753 20.523L33.872 20.6112L33.6827 20.6943L33.5033 20.8053L33.3139 20.8885L33.299 21.0659L33.2791 21.2295L33.2454 21.398L33.2393 21.5566L33.2106 21.739L33.1907 21.9025L33.157 22.071L33.1559 22.2435L32.9794 22.2751L32.8218 22.3158L32.6503 22.3613L32.4977 22.4158L32.3311 22.4752L32.1785 22.5297L32.0258 22.5842L31.8592 22.6436L31.7115 22.7119L31.5638 22.7803L31.4211 22.8625L31.2684 22.917L31.1206 22.9853L30.9779 23.0676L30.8301 23.1359L30.6825 23.2043L30.6846 22.8593L30.6916 22.5283L30.7264 22.1873L30.7473 21.8513L30.7821 21.5103L30.8169 21.1693L30.8378 20.8333L30.8864 20.4874Z"
          fill="#9D9E9E"/>
    <path fill-rule="evenodd" clip-rule="evenodd"
          d="M34.8016 22.0321L34.9988 22.1026L35.1822 22.178L35.3744 22.2345L35.5667 22.291L35.768 22.3288L35.9503 22.3576L36.1516 22.3953L36.3617 22.4142L36.553 22.4242L36.7631 22.4431L36.9683 22.4481L37.1685 22.4393L37.3598 22.4492L37.57 22.4681L37.7752 22.4731L37.9803 22.4781L38.251 22.4911L38.5166 22.4902L38.7823 22.4892L39.0618 22.4834L39.3363 22.4636L39.606 22.43L39.8756 22.3964L40.173 22.3529L40.4377 22.3054L40.7113 22.239L40.9849 22.1727L41.2724 22.1014L41.5361 22.0074L41.8047 21.9271L42.0635 21.8192L42.3133 21.73L42.2171 22.0303L42.1119 22.3495L42.0067 22.6686L41.9016 22.9877L41.7587 23.2891L41.6536 23.6082L41.5296 23.9185L41.3917 24.2336L41.0904 24.3099L40.78 24.4049L40.4876 24.4623L40.1763 24.5108L39.8701 24.5732L39.5677 24.6028L39.2654 24.6324L38.9819 24.671L38.6607 24.6918L38.3583 24.7214L38.0649 24.7322L37.7577 24.748L37.4504 24.7637L37.1619 24.7885L36.8596 24.8181L36.5523 24.8339L36.4264 24.8319L36.3054 24.8438L36.1607 24.8328L36.0398 24.8446L35.9139 24.8426L35.7742 24.8455L35.6433 24.8296L35.5174 24.8277L35.3965 24.8395L35.2657 24.8236L35.1348 24.8077L35.0089 24.8057L34.8781 24.7898L34.7522 24.7877L34.6352 24.7669L34.5044 24.751L34.8016 22.0321Z"
          fill="#CFD0D0"/>
    <path fill-rule="evenodd" clip-rule="evenodd"
          d="M28.0878 18.3884L28.1552 18.2705L28.2326 18.1803L28.3238 18.0852L28.411 18.0227L28.531 17.9643L28.642 17.9247L28.7531 17.8851L28.878 17.8405L29.22 17.7028L29.5531 17.584L29.8822 17.4978L30.2252 17.4067L30.5553 17.3672L30.8992 17.3226L31.2531 17.3059L31.5743 17.2852L31.9192 17.2872L32.2642 17.2893L32.6092 17.2914L32.9452 17.3123L33.2763 17.3194L33.6261 17.3353L33.9572 17.3424L34.2883 17.3494L34.4796 17.3594L34.6848 17.3644L34.89 17.3694L35.0813 17.3794L35.2825 17.4171L35.4926 17.436L35.6849 17.4925L35.8772 17.5491L35.5719 17.6581L35.2576 17.7859L34.9523 17.8948L34.6519 18.0176L34.3327 18.1315L34.0184 18.2593L33.7131 18.3683L33.3988 18.496L33.0935 18.6049L32.7931 18.7278L32.4788 18.8556L32.1834 18.9923L31.883 19.1151L31.5925 19.2657L31.2971 19.4024L31.0066 19.553L30.857 19.5281L30.6934 19.5083L30.52 19.4606L30.3842 19.4309L30.2296 19.3922L30.0749 19.3535L29.9064 19.3197L29.7518 19.281L29.6061 19.2235L29.4465 19.1709L29.2869 19.1183L29.1274 19.0657L28.9678 19.0131L28.8221 18.9556L28.6576 18.8892L28.5119 18.8316L28.3702 18.7414L28.2423 18.6462L28.1561 18.5361L28.0878 18.3884Z"
          fill="#FEFEFE"/>
    <path fill-rule="evenodd" clip-rule="evenodd"
          d="M39.3849 19.0039L40.1977 19.0894L40.8389 19.2205L41.3355 19.3406L41.6973 19.4774L41.9381 19.6261L42.0769 19.7957L42.1036 19.9583L42.0649 20.1129L41.9518 20.2784L41.7922 20.4449L41.5949 20.5936L41.3738 20.7194L41.1478 20.8313L40.9168 20.9294L40.7225 20.9987L40.551 21.0442L40.2258 21.0977L39.8957 21.1372L39.5706 21.1907L39.2544 21.2253L38.9243 21.2648L38.5942 21.3044L38.278 21.339L37.9429 21.3647L37.6218 21.3853L37.3006 21.4061L36.9884 21.408L36.6712 21.396L36.354 21.384L36.0318 21.3581L35.7236 21.3273L35.4193 21.2638L35.6255 21.0964L35.8694 20.9467L36.0895 20.7743L36.3284 20.6108L36.5723 20.4612L36.7974 20.3027L37.0413 20.1531L37.304 20.0124L37.539 19.8817L37.8017 19.7409L38.0456 19.5914L38.3043 19.4834L38.5809 19.3378L38.8396 19.2297L39.0984 19.1218L39.3849 19.0039Z"
          fill="#FEFEFE"/>
    <path fill-rule="evenodd" clip-rule="evenodd"
          d="M41.2701 22.6655L40.908 23.843L35.7158 24.2875L35.7763 24.2816L35.9527 24.2499L36.1985 24.1935L36.5277 24.1074L36.9271 24.043L37.3722 23.9312L37.8501 23.8233L38.3506 23.6916L38.8513 23.5599L39.338 23.4331L39.8059 23.2975L40.2411 23.1578L40.6159 23.0242L40.9162 22.9013L41.1512 22.7706L41.2701 22.6655Z"
          fill="#9D9E9E"/>
    <path fill-rule="evenodd" clip-rule="evenodd"
          d="M54.5358 43.5402H47.9086V39.595H48.7523L46.4691 35.9302L45.4098 36.8539V39.595H46.6721V43.5402H40.3524C40.0839 43.5379 39.9453 43.3598 39.9368 43.1427V39.595H41.3097V30.1653H39.9368V26.7501C39.928 26.4646 40.0742 26.2334 40.4945 26.2202H46.0939H46.6721V30.1653H45.4098V32.3822L47.926 30.1653H47.9086V26.2202H54.0811C54.4087 26.2231 54.5907 26.3538 54.5996 26.7215V30.1653H53.0196L49.4011 33.3503L53.2967 39.595H54.976V43.0858C54.9739 43.3515 54.8622 43.5424 54.5358 43.5402Z"
          fill="#FEFEFE"/>
    <path d="M54.2876 42.8522H48.5966V40.2835H49.9917L46.6258 34.8805L44.7214 36.5412V40.2835H45.9837V42.8522H40.6249V40.2835H41.9977V29.4773H40.6249V26.9087H45.9837V29.4773H44.7214V33.9061L49.7481 29.4773H48.5966V26.9087H53.9112V29.4773H52.7596L48.508 33.2196L52.9147 40.2835H54.2876V42.8522Z"
          fill="#212121"/>
    <path fill-rule="evenodd" clip-rule="evenodd"
          d="M27.0798 43.5402H20.652V39.595H22.1799V36.432H18.7511V39.595H20.2791V43.5402H13.8584C13.5163 43.5369 13.2704 43.3585 13.2781 42.8826V39.595H14.651V30.1653H13.2781V26.8396C13.2677 26.4873 13.4685 26.237 13.946 26.2202H20.2791V30.1653H18.7511V32.8633H22.1799V30.1653H20.652V26.2202H26.83C27.3757 26.2191 27.6501 26.6077 27.653 27.0166V30.1653H26.2801V39.595H27.653V42.9019C27.6553 43.3032 27.4828 43.5313 27.0798 43.5402Z"
          fill="#FEFEFE"/>
    <path d="M26.9649 42.8522H21.3403V40.2835H22.8683V35.744H18.063V40.2835H19.5909V42.8522H13.9664V40.2835H15.3393V29.4773H13.9664V26.9087H19.5909V29.4773H18.063V33.5518H22.8683V29.4773H21.3403V26.9087H26.9649V29.4773H25.5919V40.2835H26.9649V42.8522Z"
          fill="#212121"/>
</svg>
