<svg height="100px" width="100px" version="1.1" id="_x32_" xmlns="http://www.w3.org/2000/svg" xmlns:xlink="http://www.w3.org/1999/xlink" viewBox="0 0 512 512"  xml:space="preserve">
<g>
	<path fill="#222" d="M383.788,206.98v51.113c-0.013,35.266-14.301,67.108-37.475,90.318
		c-23.212,23.176-55.042,37.464-90.307,37.464c-35.267,0-67.108-14.288-90.32-37.464c-23.174-23.211-37.462-55.052-37.474-90.318
		V206.98H90.503v51.113c0.036,84.93,64.21,154.935,146.649,164.337V512h37.709v-89.57c82.426-9.402,146.599-79.407,146.636-164.337
		V206.98H383.788z"/>
	<path fill="#222" d="M256.006,344.41c47.589,0,86.305-38.728,86.305-86.318V86.318C342.311,38.728,303.596,0,256.006,0
		c-47.59,0-86.318,38.728-86.318,86.318v171.775C169.688,305.682,208.416,344.41,256.006,344.41z"/>
</g>
</svg>